<svg xmlns="http://www.w3.org/2000/svg" width="233" height="118" fill="none" viewBox="0 0 233 118">
  <path fill="#fff" d="M141.631 90.246c-12.456-.846-22.147-7.624-21.646-15.14.501-7.515 11.006-12.922 23.462-12.077 12.456.846 22.147 7.624 21.645 15.14-.501 7.515-11.005 12.922-23.461 12.077Z"/>
  <path fill="#3B3640" d="M143.904 90.994c11.574 0 20.983-5.456 21.524-12.657.541-7.857-9.41-14.84-22.173-15.713-12.762-.873-23.579 4.8-24.011 12.548-.541 7.856 9.41 14.84 22.172 15.713.758.109 1.623.109 2.488.109Zm-3.244-27.388c.865 0 1.622 0 2.487.109 12.114.873 21.632 7.31 21.2 14.621-.433 7.202-10.817 12.44-22.931 11.567-12.113-.873-21.632-7.311-21.199-14.622.541-6.765 9.41-11.675 20.443-11.675Z"/>
  <path fill="#3B3640" d="M159.047 86.847c.108-.763.216-1.855.216-2.837.108-1.09.217-2.182.325-2.946l-1.082-.109c-.108.764-.216 1.855-.325 2.946-.108.982-.216 2.073-.216 2.837l1.082.11Zm-10.598 2.947c.108-.982.216-2.073.324-3.274a167 167 0 0 1 .325-3.273l-1.082-.11c-.108.983-.216 2.183-.324 3.274-.108 1.2-.217 2.292-.325 3.274l1.082.109Zm-10.385.217c.216-2.182.649-4.364 1.19-6.437l-1.082-.218c-.54 2.182-.973 4.364-1.19 6.546l1.082.11Z"/>
  <path fill="#fff" d="M142.083 83.16c-12.456-.845-22.254-6.015-21.885-11.546.369-5.532 10.765-9.33 23.221-8.485 12.456.846 22.255 6.015 21.886 11.547-.369 5.531-10.766 9.33-23.222 8.484Z"/>
  <path fill="#3B3640" d="M145.313 83.902c4.759 0 9.301-.655 12.871-1.964 4.65-1.637 7.246-4.256 7.462-7.093.433-5.892-9.409-11.239-22.388-12.111-12.98-.873-23.471 3.055-23.795 9.056-.433 5.892 9.409 11.239 22.388 12.112 1.19-.11 2.38 0 3.462 0Zm-5.408-20.296c1.081 0 2.163 0 3.353.11 11.897.763 21.74 5.892 21.415 11.02-.216 2.4-2.595 4.692-6.705 6.22-4.327 1.528-9.951 2.182-15.9 1.855-11.898-.764-21.74-5.892-21.416-11.02.217-4.802 8.761-8.184 19.253-8.184Z"/>
  <path fill="#fff" d="M142.201 81.418c-10.966-.744-19.609-5.052-19.304-9.621.305-4.57 9.442-7.67 20.408-6.926 10.966.744 19.608 5.052 19.303 9.622-.305 4.569-9.441 7.67-20.407 6.925Z"/>
  <path fill="#3B3640" d="M145.314 82.048c9.843 0 17.306-3.056 17.63-7.53.325-4.91-8.328-9.383-19.793-10.147-5.408-.328-10.491.109-14.385 1.527-4.11 1.419-6.381 3.492-6.598 5.893-.216 2.4 1.839 4.8 5.733 6.765 3.677 1.855 8.652 3.055 14.06 3.383 1.082.109 2.272.109 3.353.109Zm-5.516-16.695c1.082 0 2.163 0 3.245.109 10.491.764 19.036 4.801 18.82 9.057-.217 4.255-9.302 7.092-19.793 6.437-5.192-.327-10.059-1.527-13.629-3.273-3.353-1.637-5.299-3.71-5.083-5.674.108-1.964 2.271-3.71 5.841-4.91 2.92-1.2 6.597-1.746 10.599-1.746Zm-10.385 21.385c.216-.873.432-1.855.54-2.946.217-.982.433-2.073.541-2.837l-1.081-.219c-.217.873-.325 1.855-.541 2.837-.217.983-.433 2.074-.541 2.947l1.082.218Zm-7.009-9.203 1.022.358-1.347 3.917-1.022-.357 1.347-3.918Zm41.511 5.166a26.572 26.572 0 0 0 0-4.146l-1.082.109c.109 1.31.109 2.619 0 3.928l1.082.11Z"/>
  <path fill="#3B3640" d="M142.499 76.371c2.379 0 4.759-.545 6.165-1.636 1.298-.983 1.514-2.4.649-3.929l-.974.546c.649.982.433 1.855-.432 2.51-2.488 1.964-9.194 1.855-11.141-.11-.324-.327-1.19-1.2.325-3.164l-.866-.654c-1.838 2.4-.973 3.928-.216 4.582 1.298 1.2 3.894 1.855 6.49 1.855Z"/>
  <path fill="#fff" d="M131.032 75.297c-12.456-.845-22.147-7.623-21.646-15.139.501-7.515 11.005-12.922 23.461-12.077 12.456.846 22.147 7.624 21.646 15.14-.502 7.515-11.005 12.922-23.461 12.076Z"/>
  <path fill="#3B3640" d="M133.307 76.043c5.192 0 10.059-1.092 13.953-3.056 4.65-2.4 7.246-5.783 7.571-9.602.324-3.819-1.947-7.638-6.165-10.584-4.218-2.946-9.843-4.801-16.008-5.128-6.165-.437-12.006.654-16.548 2.946-4.651 2.4-7.247 5.783-7.571 9.602-.325 3.819 1.947 7.638 6.165 10.584 4.218 2.946 9.842 4.801 16.007 5.129.866 0 1.731.109 2.596.109Zm-3.353-27.498c.865 0 1.731 0 2.488.11 5.949.436 11.465 2.182 15.467 5.019 3.893 2.728 5.949 6.11 5.732 9.602-.216 3.492-2.704 6.547-6.922 8.73-4.327 2.29-10.059 3.273-15.899 2.837-5.949-.437-11.466-2.183-15.468-5.02-3.893-2.728-5.948-6.11-5.732-9.602.216-3.492 2.704-6.547 6.922-8.73 3.786-1.854 8.437-2.946 13.412-2.946Z"/>
  <path fill="#3B3640" d="M148.34 71.79c.108-.764.217-1.855.217-2.837.108-1.091.216-2.074.324-2.946l-1.082-.11c-.108.764-.216 1.855-.324 2.947-.108.982-.217 2.073-.217 2.837l1.082.109Zm-10.6 3.055c.108-.982.216-2.074.324-3.274a167 167 0 0 1 .325-3.273l-1.082-.11c-.108.983-.217 2.074-.325 3.274a167.5 167.5 0 0 1-.324 3.273l1.082.11Zm-10.383.109c.216-2.182.649-4.365 1.19-6.438l-1.082-.218c-.541 2.182-.973 4.364-1.19 6.547l1.082.109Z"/>
  <path fill="#fff" d="M131.488 68.106c-12.456-.845-22.255-6.015-21.886-11.546.369-5.532 10.766-9.33 23.222-8.485 12.456.846 22.254 6.015 21.885 11.547-.369 5.531-10.766 9.33-23.221 8.484Z"/>
  <path fill="#3B3640" d="M134.713 68.844c4.759 0 9.302-.654 12.871-1.964 4.651-1.636 7.246-4.255 7.463-7.092.432-5.893-9.41-11.24-22.389-12.112-12.98-.873-23.471 3.055-23.796 9.056-.432 5.893 9.41 11.24 22.39 12.112h3.461Zm-5.516-20.295c1.081 0 2.163 0 3.353.109 11.897.764 21.74 5.892 21.415 11.02-.216 2.401-2.596 4.693-6.706 6.22-4.326 1.528-9.95 2.183-15.899 1.855-11.898-.764-21.741-5.892-21.416-11.02.216-4.693 8.761-8.184 19.253-8.184Z"/>
  <path fill="#fff" d="M131.603 66.36c-10.966-.744-19.608-5.052-19.303-9.621.304-4.57 9.441-7.67 20.407-6.926 10.966.745 19.608 5.052 19.304 9.622-.305 4.57-9.442 7.67-20.408 6.926Z"/>
  <path fill="#3B3640" d="M134.604 67.096c9.842 0 17.305-3.056 17.629-7.53.325-4.91-8.328-9.383-19.793-10.147-5.408-.327-10.491.218-14.385 1.528-4.11 1.418-6.381 3.491-6.598 5.892-.216 2.4 1.839 4.8 5.733 6.765 3.677 1.855 8.652 3.055 14.06 3.383 1.19 0 2.272.109 3.354.109ZM129.196 50.4c1.081 0 2.163 0 3.244.11 10.492.763 19.036 4.8 18.82 9.056-.324 4.146-9.302 7.092-19.793 6.437-5.192-.327-10.059-1.527-13.628-3.273-3.353-1.637-5.3-3.71-5.084-5.674.108-1.964 2.271-3.71 5.841-4.91 2.812-1.2 6.598-1.746 10.6-1.746Zm-10.381 21.39c.216-.874.433-1.856.541-2.947.216-.982.432-1.964.54-2.837l-1.081-.218c-.216.873-.325 1.855-.541 2.837-.216.982-.433 2.073-.541 2.946l1.082.219Zm-7.026-9.188 1.022.358-1.347 3.917-1.022-.357 1.347-3.917Zm41.419 5.15a26.572 26.572 0 0 0 0-4.146l-1.082.109a23.633 23.633 0 0 1 0 3.928l1.082.109Z"/>
  <path fill="#3B3640" d="M131.901 61.314c2.38 0 4.759-.546 6.165-1.637 1.298-.982 1.515-2.4.649-3.928l-.973.545c.649.983.433 1.855-.433 2.51-2.487 1.964-9.194 1.855-11.14-.109-.325-.327-1.19-1.2.324-3.164l-.865-.655c-1.839 2.4-.973 3.928-.216 4.583 1.298 1.2 3.894 1.855 6.489 1.855Z"/>
  <path fill="#fff" d="M84.635 90.246C72.18 89.4 62.488 82.622 62.99 75.106c.5-7.515 11.005-12.922 23.46-12.077 12.456.846 22.148 7.624 21.646 15.14-.501 7.515-11.005 12.922-23.46 12.077Z"/>
  <path fill="#3B3640" d="M86.906 90.993c11.573 0 20.983-5.456 21.524-12.657.541-7.857-9.41-14.84-22.173-15.713-12.763-.873-23.578 4.8-24.01 12.548-.542 7.856 9.41 14.84 22.172 15.713.757.109 1.622.109 2.487.109Zm-3.244-27.388c.865 0 1.622 0 2.487.109 12.114.873 21.632 7.31 21.2 14.622-.433 7.201-10.816 12.439-22.93 11.566-12.114-.873-21.632-7.311-21.2-14.622.433-6.765 9.41-11.675 20.443-11.675Z"/>
  <path fill="#3B3640" d="M101.941 86.845c.108-.763.216-1.855.216-2.946.108-1.091.216-2.073.216-2.837l-1.082-.109a21.975 21.975 0 0 0-.216 2.946c-.108 1.091-.216 2.073-.216 2.837l1.082.11ZM91.45 89.792c.107-.982.215-2.073.323-3.274.109-1.2.217-2.291.325-3.273l-1.082-.11c-.108.983-.216 2.183-.324 3.274-.108 1.2-.216 2.292-.324 3.274l1.081.109Zm-10.384.218c.216-2.182.65-4.364 1.19-6.437l-1.082-.218c-.54 2.182-.973 4.364-1.19 6.546l1.082.11Z"/>
  <path fill="#fff" d="M85.087 83.161c-12.456-.845-22.255-6.015-21.886-11.546.37-5.532 10.766-9.33 23.222-8.485 12.456.846 22.254 6.015 21.885 11.547-.368 5.531-10.765 9.33-23.22 8.484Z"/>
  <path fill="#3B3640" d="M88.424 83.903c11.249 0 19.902-3.71 20.226-9.166.433-5.892-9.41-11.24-22.389-12.112-6.057-.437-11.898.218-16.332 1.855-4.651 1.637-7.247 4.255-7.463 7.093-.433 5.892 9.41 11.239 22.39 12.111 1.189.11 2.379.219 3.568.219Zm-5.732-20.296c1.082 0 2.271 0 3.46.11 11.898.763 21.741 5.891 21.417 11.02-.325 5.128-10.708 8.838-22.714 7.965-11.897-.763-21.74-5.892-21.416-11.02.217-2.4 2.596-4.692 6.706-6.22 3.57-1.2 7.896-1.855 12.547-1.855Z"/>
  <path fill="#fff" d="M85.2 81.42c-10.965-.745-19.608-5.053-19.303-9.622.304-4.57 9.442-7.67 20.408-6.926 10.966.744 19.608 5.052 19.303 9.622-.305 4.569-9.441 7.67-20.407 6.925Z"/>
  <path fill="#3B3640" d="M88.201 82.047c4.11 0 8.004-.546 11.14-1.637 4.111-1.418 6.382-3.491 6.599-5.892.216-2.4-1.839-4.801-5.733-6.765-3.678-1.855-8.653-3.055-14.061-3.383-11.465-.764-20.658 2.51-20.983 7.42-.324 4.91 8.329 9.384 19.794 10.148 1.081.11 2.163.11 3.245.11Zm-3.244-1.2v.545-.545c-10.492-.764-19.037-4.801-18.82-9.057.324-4.146 9.302-7.092 19.793-6.438 5.192.328 10.059 1.528 13.628 3.274 3.353 1.636 5.3 3.71 5.083 5.674-.108 1.964-2.271 3.71-5.84 4.91-3.57 1.528-8.544 1.964-13.844 1.637Zm-12.542 5.89c.216-.873.432-1.855.54-2.946.217-.982.433-2.073.541-2.837l-1.081-.219c-.217.873-.433 1.855-.541 2.947-.217.982-.433 2.073-.541 2.837l1.082.218Zm-6.993-9.622 1.021.358-1.347 3.917-1.022-.358 1.348-3.917Zm41.493 5.585a26.574 26.574 0 0 0 0-4.147l-1.082.109c.109 1.31.109 2.619 0 3.928l1.082.11Z"/>
  <path fill="#3B3640" d="M85.499 76.37c2.38 0 4.759-.545 6.165-1.636 1.298-.982 1.514-2.4.649-3.928l-.973.545c.648.982.432 1.855-.433 2.51-2.488 1.964-9.194 1.855-11.14-.11-.325-.327-1.19-1.2.324-3.164l-.865-.654c-1.84 2.4-.974 3.928-.216 4.582 1.297 1.2 3.893 1.855 6.489 1.855Z"/>
  <path fill="#fff" d="M22.553 89.482C10.097 88.636.406 81.858.908 74.342c.5-7.515 11.005-12.922 23.46-12.076 12.457.845 22.148 7.623 21.646 15.139-.501 7.516-11.005 12.923-23.46 12.077Z"/>
  <path fill="#3B3640" d="M24.823 90.23c11.573 0 20.982-5.456 21.523-12.657.54-7.856-9.41-14.84-22.173-15.713C11.411 60.987.594 66.661.162 74.41c-.541 7.856 9.41 14.84 22.172 15.712.758.11 1.623.11 2.489.11Zm-3.245-27.388c.865 0 1.622 0 2.487.11 12.114.872 21.632 7.31 21.2 14.62-.433 7.312-10.709 12.44-22.93 11.567-12.114-.873-21.632-7.31-21.2-14.621.433-6.766 9.41-11.676 20.443-11.676Z"/>
  <path fill="#3B3640" d="M39.856 85.974c.109-.764.217-1.855.217-2.946.108-1.09.216-2.073.216-2.837l-1.081-.109a21.944 21.944 0 0 0-.216 2.946c-.109 1.091-.217 2.073-.217 2.837l1.081.11ZM29.365 89.03c.108-.983.216-2.074.324-3.274.109-1.2.216-2.292.325-3.274l-1.082-.109c-.108.982-.216 2.182-.324 3.273-.108 1.2-.217 2.292-.325 3.274l1.082.11Zm-10.385.108c.217-2.183.65-4.365 1.19-6.438l-1.082-.219c-.54 2.183-.973 4.365-1.189 6.547l1.082.11Z"/>
  <path fill="#fff" d="M23.009 82.287C10.553 81.441.754 76.272 1.123 70.74c.37-5.531 10.766-9.33 23.222-8.484 12.456.846 22.254 6.015 21.885 11.547-.369 5.531-10.766 9.33-23.221 8.484Z"/>
  <path fill="#3B3640" d="M26.334 83.137c11.249 0 19.902-3.71 20.226-9.166.433-5.892-9.41-11.239-22.389-12.112-6.057-.436-11.897.218-16.332 1.855C3.189 65.351.592 67.97.376 70.807c-.433 5.892 9.41 11.239 22.39 12.112 1.19.109 2.379.218 3.568.218Zm-5.732-20.405c1.082 0 2.271 0 3.46.11 11.899.763 21.741 5.892 21.417 11.02-.325 5.129-10.708 8.838-22.714 7.966-11.897-.764-21.74-5.893-21.416-11.021.217-2.4 2.596-4.692 6.707-6.22 3.569-1.2 7.895-1.855 12.546-1.855Z"/>
  <path fill="#fff" d="M23.124 80.546c-10.966-.744-19.608-5.052-19.303-9.622.304-4.569 9.441-7.67 20.407-6.925 10.966.744 19.609 5.052 19.304 9.621-.305 4.57-9.442 7.67-20.408 6.926Z"/>
  <path fill="#3B3640" d="M26.117 81.281c4.11 0 8.004-.545 11.14-1.636 4.11-1.419 6.382-3.492 6.599-5.892.216-2.401-1.84-4.802-5.733-6.766-3.678-1.855-8.653-3.055-14.061-3.382-11.465-.764-20.658 2.51-20.983 7.42-.324 4.91 8.328 9.383 19.793 10.147 1.082.11 2.163.11 3.245.11Zm-5.3-16.694c.974 0 2.055 0 3.137.109 5.191.327 10.059 1.527 13.628 3.273 3.353 1.637 5.3 3.71 5.084 5.674-.108 1.964-2.271 3.71-5.84 4.91-3.786 1.31-8.762 1.746-13.954 1.419-10.491-.764-19.036-4.801-18.82-9.057.325-3.6 7.68-6.328 16.765-6.328ZM10.329 85.973c.216-.873.432-1.855.54-2.946.217-.982.433-2.073.541-2.837l-1.081-.218c-.217.873-.433 1.855-.541 2.946-.217.982-.433 2.073-.541 2.837l1.082.218Zm-7.183-9.531 1.022.358-1.347 3.917L1.8 80.36l1.347-3.918Zm41.687 5.494a26.523 26.523 0 0 0 0-4.147l-1.082.11a23.839 23.839 0 0 1 0 3.927l1.082.11Z"/>
  <path fill="#3B3640" d="M23.416 75.497c2.38 0 4.76-.545 6.166-1.636 1.298-.982 1.514-2.4.649-3.928l-.974.545c.65.982.433 1.855-.433 2.51-2.487 1.964-9.193 1.855-11.14-.11-.324-.327-1.19-1.2.325-3.164l-.866-.654c-1.838 2.4-.973 3.928-.216 4.582 1.298 1.2 3.894 1.855 6.49 1.855Z"/>
  <path fill="#fff" d="M85.5 75.841c-12.456-.845-22.147-7.623-21.646-15.139.502-7.515 11.005-12.922 23.461-12.077 12.456.846 22.148 7.624 21.646 15.14C108.46 71.28 97.956 76.686 85.5 75.84Z"/>
  <path fill="#3B3640" d="M87.881 76.592c5.192 0 10.059-1.092 13.953-3.056 4.651-2.4 7.246-5.783 7.571-9.602.324-3.819-1.947-7.638-6.165-10.584-4.218-2.946-9.843-4.801-16.008-5.129-6.165-.436-12.005.655-16.548 2.947-4.65 2.4-7.247 5.783-7.571 9.602-.325 3.819 1.947 7.638 6.165 10.584 4.218 2.946 9.842 4.801 16.007 5.129.866.109 1.731.109 2.596.109Zm-3.353-27.389c.865 0 1.731 0 2.488.11 5.949.436 11.465 2.182 15.467 5.019 3.894 2.728 5.949 6.11 5.733 9.602-.217 3.492-2.705 6.547-6.923 8.73-4.326 2.29-10.059 3.273-15.9 2.836-5.948-.436-11.465-2.182-15.466-5.019-3.894-2.728-5.949-6.11-5.733-9.602.217-3.492 2.704-6.547 6.922-8.73 3.786-1.964 8.437-2.946 13.412-2.946Z"/>
  <path fill="#3B3640" d="M102.915 72.333c.108-.764.216-1.855.216-2.946.108-1.091.217-2.074.217-2.838l-1.082-.109a21.978 21.978 0 0 0-.216 2.947c-.109 1.09-.217 2.073-.217 2.837l1.082.109ZM92.316 75.39c.108-.983.216-2.074.324-3.274a167 167 0 0 1 .325-3.273l-1.082-.11c-.108.982-.216 2.074-.325 3.274a167.5 167.5 0 0 1-.324 3.273l1.082.11Zm-10.383.108c.216-2.183.65-4.365 1.19-6.438l-1.082-.218c-.54 2.182-.973 4.364-1.19 6.547l1.082.109Z"/>
  <path fill="#fff" d="M86.066 68.652C73.61 67.807 63.81 62.637 64.18 57.106c.37-5.532 10.766-9.33 23.222-8.485 12.456.846 22.254 6.015 21.885 11.547-.369 5.531-10.766 9.33-23.221 8.484Z"/>
  <path fill="#3B3640" d="M89.18 69.499c4.759 0 9.301-.655 12.871-1.965 4.651-1.636 7.246-4.255 7.463-7.092.432-5.892-9.41-11.239-22.39-12.112-6.056-.436-11.897.218-16.331 1.855-4.651 1.637-7.247 4.255-7.463 7.093-.433 5.892 9.41 11.239 22.389 12.111 1.19 0 2.38.11 3.46.11Zm-5.517-20.405c1.082 0 2.272 0 3.462.11 11.897.763 21.74 5.891 21.415 11.02-.216 2.4-2.596 4.692-6.706 6.22-4.326 1.527-9.95 2.182-15.899 1.854-11.898-.764-21.74-5.892-21.416-11.02.216-2.401 2.596-4.692 6.706-6.22 3.353-1.2 7.788-1.964 12.439-1.964Z"/>
  <path fill="#fff" d="M86.183 66.91c-10.966-.744-19.608-5.052-19.303-9.621.304-4.57 9.441-7.67 20.407-6.926 10.966.744 19.608 5.052 19.304 9.622-.305 4.57-9.442 7.67-20.408 6.925Z"/>
  <path fill="#3B3640" d="M89.18 67.642c4.11 0 8.004-.546 11.14-1.637 4.11-1.418 6.382-3.492 6.598-5.892.216-2.4-1.838-4.801-5.732-6.765-3.678-1.855-8.653-3.056-14.06-3.383-11.466-.764-20.66 2.51-20.984 7.42-.325 4.91 8.328 9.384 19.793 10.148 1.082.109 2.163.109 3.245.109Zm-5.3-16.695c.974 0 2.055 0 3.137.11 5.192.326 10.059 1.527 13.628 3.273 3.353 1.636 5.3 3.71 5.083 5.674-.108 1.964-2.271 3.71-5.84 4.91-3.786 1.31-8.761 1.746-13.953 1.418-10.491-.763-19.036-4.8-18.82-9.056.325-3.601 7.68-6.329 16.765-6.329ZM73.387 72.334c.216-.873.325-1.855.541-2.837.216-.982.433-2.073.54-2.946l-1.08-.218c-.217.873-.434 1.855-.542 2.946-.216.982-.432 2.073-.54 2.837l1.081.218Zm-7.286-9.545 1.022.358-1.347 3.917-1.022-.358 1.347-3.917Zm41.681 5.507a26.574 26.574 0 0 0 0-4.147l-1.081.11a23.851 23.851 0 0 1 0 3.928l1.081.109Z"/>
  <path fill="#3B3640" d="M86.366 61.858c2.38 0 4.76-.546 6.165-1.637 1.298-.982 1.514-2.4.649-3.928l-.973.546c.649.982.432 1.854-.433 2.51-2.488 1.963-9.193 1.854-11.14-.11-.325-.327-1.19-1.2.324-3.164l-.865-.655c-1.839 2.4-.974 3.928-.217 4.583 1.406 1.31 3.894 1.855 6.49 1.855Z"/>
  <path fill="#fff" d="M39.963 75.3c-12.456-.846-22.147-7.624-21.646-15.14.502-7.515 11.006-12.922 23.462-12.077 12.456.846 22.147 7.624 21.645 15.14-.501 7.515-11.005 12.922-23.46 12.076Z"/>
  <path fill="#3B3640" d="M42.235 76.044c5.192 0 10.059-1.091 13.953-3.056 4.65-2.4 7.246-5.783 7.57-9.602.217-3.819-1.946-7.638-6.165-10.584-4.218-2.946-9.842-4.801-16.007-5.128-6.165-.437-12.006.654-16.549 2.946-4.65 2.4-7.247 5.783-7.571 9.602-.325 3.819 1.947 7.638 6.165 10.584 4.218 2.946 9.843 4.801 16.008 5.129.865 0 1.73.109 2.596.109Zm-3.353-27.497c.865 0 1.73 0 2.487.109 5.95.436 11.466 2.182 15.468 5.019 3.893 2.728 5.948 6.11 5.732 9.602-.217 3.492-2.704 6.547-6.922 8.73-4.327 2.29-10.06 3.273-15.9 2.837-5.949-.437-11.465-2.183-15.467-5.02-3.893-2.728-5.949-6.11-5.733-9.602.217-3.492 2.705-6.547 6.923-8.73 3.786-1.854 8.437-2.945 13.412-2.945Z"/>
  <path fill="#3B3640" d="M57.27 71.79c.108-.764.216-1.855.324-2.946.108-.982.216-2.074.216-2.837l-1.081-.11a21.65 21.65 0 0 0-.217 2.837c-.108 1.092-.216 2.183-.324 2.947l1.082.109Zm-10.6 3.056c.108-.982.216-2.074.324-3.274.108-1.2.216-2.291.324-3.273l-1.081-.11a176.1 176.1 0 0 0-.325 3.274 167.5 167.5 0 0 1-.324 3.273l1.081.11Zm-10.383.109c.217-2.182.649-4.365 1.19-6.438l-1.082-.218c-.54 2.182-.973 4.364-1.19 6.547l1.082.109Z"/>
  <path fill="#fff" d="M40.42 68.106c-12.457-.845-22.255-6.015-21.886-11.546.369-5.532 10.765-9.33 23.221-8.485 12.456.846 22.255 6.015 21.886 11.547-.37 5.531-10.766 9.33-23.222 8.484Z"/>
  <path fill="#3B3640" d="M43.64 68.843c4.76 0 9.302-.654 12.871-1.964 4.651-1.637 7.247-4.255 7.463-7.092.217-2.947-2.055-5.783-6.381-8.075-4.218-2.182-9.843-3.71-16.008-4.037-6.057-.437-11.897.218-16.332 1.855-4.65 1.636-7.247 4.255-7.463 7.092-.432 5.892 9.41 11.24 22.389 12.112 1.082.11 2.272.11 3.461.11Zm-5.624-20.295c1.081 0 2.271 0 3.461.109 5.949.436 11.465 1.855 15.575 3.928 3.894 2.073 6.057 4.583 5.84 6.983-.216 2.401-2.595 4.692-6.705 6.22-4.326 1.528-9.951 2.182-15.9 1.855-11.897-.764-21.74-5.892-21.415-11.02.216-2.401 2.595-4.693 6.705-6.22 3.461-1.2 7.788-1.855 12.439-1.855Z"/>
  <path fill="#fff" d="M40.537 66.362c-10.966-.745-19.609-5.053-19.304-9.622.305-4.57 9.442-7.67 20.408-6.926 10.965.745 19.608 5.052 19.303 9.622-.305 4.57-9.441 7.67-20.407 6.926Z"/>
  <path fill="#3B3640" d="M43.532 67.096c4.11 0 8.005-.546 11.141-1.637 4.11-1.419 6.381-3.492 6.597-5.892.325-4.91-8.328-9.384-19.793-10.148-5.408-.327-10.49.218-14.385 1.528-4.11 1.418-6.381 3.491-6.598 5.892-.324 4.91 8.329 9.384 19.794 10.148 1.081 0 2.163.109 3.244.109ZM38.124 50.4c1.082 0 2.164 0 3.245.11 10.492.763 19.036 4.8 18.82 9.056-.108 1.964-2.271 3.71-5.84 4.91-3.786 1.31-8.761 1.746-13.953 1.418-10.492-.763-19.036-4.8-18.82-9.056.108-1.964 2.271-3.71 5.84-4.91 2.921-.982 6.707-1.528 10.708-1.528ZM27.743 71.79c.216-.874.432-1.856.54-2.947.217-.982.433-2.073.541-2.837l-1.081-.218c-.217.873-.433 1.855-.541 2.946-.217.982-.433 2.074-.541 2.837l1.082.219Zm-7.105-9.475 1.022.358-1.346 3.917-1.022-.357 1.346-3.918Zm41.5 5.437a26.523 26.523 0 0 0 0-4.146l-1.082.109a23.851 23.851 0 0 1 0 3.928l1.082.109Z"/>
  <path fill="#3B3640" d="M40.829 61.314c2.38 0 4.759-.546 6.165-1.637 1.298-.982 1.514-2.4.649-3.928l-.974.545c.65.983.433 1.855-.432 2.51-2.488 1.964-9.194 1.855-11.14-.109-.325-.327-1.19-1.2.324-3.164l-.865-.655c-1.84 2.4-.974 3.928-.217 4.583 1.298 1.2 3.894 1.855 6.49 1.855Z"/>
  <path fill="#fff" d="M114.485 61.551c-12.456-.845-22.147-7.623-21.646-15.139.502-7.515 11.005-12.922 23.461-12.077 12.456.846 22.147 7.624 21.646 15.14-.502 7.515-11.005 12.922-23.461 12.076Z"/>
  <path fill="#3B3640" d="M116.758 62.298c5.192 0 10.059-1.092 13.953-3.056 4.651-2.4 7.247-5.783 7.571-9.602.216-3.819-1.947-7.638-6.165-10.584-4.218-2.946-9.843-4.801-16.008-5.128-6.165-.437-12.005.654-16.548 2.946-4.65 2.4-7.247 5.783-7.571 9.602-.325 3.819 1.947 7.638 6.165 10.584 4.218 2.946 9.843 4.801 16.008 5.128.865.11 1.73.11 2.595.11Zm-3.244-27.389c.865 0 1.73 0 2.487.11 5.949.436 11.465 2.182 15.467 5.019 3.894 2.728 5.949 6.11 5.732 9.602-.216 3.492-2.703 6.547-6.922 8.73-4.326 2.29-10.059 3.273-15.899 2.837-5.949-.437-11.465-2.183-15.467-5.02-3.894-2.728-5.95-6.11-5.733-9.602.217-3.492 2.705-6.547 6.923-8.73 3.677-1.963 8.328-2.945 13.412-2.945Z"/>
  <path fill="#3B3640" d="M131.791 58.15c.108-.764.216-1.855.325-2.946.108-.982.216-2.073.216-2.837l-1.082-.11a21.674 21.674 0 0 0-.216 2.838c-.108 1.091-.216 2.182-.324 2.946l1.081.11ZM121.3 61.096c.108-.982.217-2.182.325-3.382.108-1.091.216-2.292.324-3.164l-1.081-.11c-.109.983-.216 2.074-.325 3.165-.108 1.2-.216 2.4-.324 3.382l1.081.11Zm-10.382.109c.216-2.182.649-4.365 1.189-6.438l-1.081-.218c-.541 2.182-.973 4.364-1.19 6.547l1.082.109Z"/>
  <path fill="#fff" d="M114.936 54.467c-12.456-.846-22.254-6.015-21.885-11.547.369-5.531 10.765-9.33 23.221-8.484 12.456.845 22.255 6.015 21.886 11.546-.369 5.532-10.766 9.33-23.222 8.485Z"/>
  <path fill="#3B3640" d="M118.167 55.207c4.759 0 9.302-.655 12.871-1.965 4.651-1.636 7.247-4.255 7.463-7.092.217-2.946-2.055-5.783-6.381-8.075-4.219-2.182-9.843-3.71-16.008-4.037-6.057-.436-11.897.218-16.332 1.855-4.65 1.637-7.247 4.255-7.463 7.093-.433 5.892 9.41 11.238 22.389 12.111 1.19 0 2.271.11 3.461.11Zm-5.624-20.405c1.082 0 2.271 0 3.461.109 5.949.436 11.465 1.855 15.575 3.928 3.894 2.073 6.057 4.583 5.841 6.983-.216 2.401-2.596 4.693-6.706 6.22-4.327 1.528-9.951 2.182-15.9 1.855-11.898-.764-21.74-5.892-21.415-11.02.216-2.401 2.596-4.693 6.706-6.22 3.461-1.091 7.787-1.855 12.438-1.855Z"/>
  <path fill="#fff" d="M115.052 52.724c-10.966-.745-19.609-5.052-19.304-9.622.305-4.57 9.442-7.67 20.408-6.926 10.966.745 19.609 5.053 19.304 9.622-.305 4.57-9.442 7.67-20.408 6.926Z"/>
  <path fill="#3B3640" d="M118.057 53.35c4.11 0 8.004-.545 11.141-1.636 4.11-1.419 6.382-3.492 6.598-5.892.324-4.91-8.329-9.384-19.794-10.148-5.408-.328-10.491.218-14.385 1.528-4.11 1.418-6.381 3.491-6.598 5.892-.324 4.91 8.328 9.384 19.793 10.148 1.082.109 2.164.109 3.245.109Zm-5.408-16.694c1.082 0 2.163 0 3.245.109 10.492.764 19.037 4.801 18.82 9.056-.108 1.965-2.272 3.71-5.841 4.91-3.785 1.31-8.761 1.747-13.952 1.42-10.492-.765-19.036-4.802-18.82-9.057.108-1.964 2.271-3.71 5.841-4.91 2.92-.983 6.705-1.528 10.707-1.528ZM102.264 58.04c.216-.873.433-1.855.541-2.946.216-.982.433-2.073.541-2.837l-1.082-.218c-.216.873-.433 1.855-.541 2.946-.216.982-.432 2.073-.54 2.837l1.081.218Zm-6.993-9.62 1.022.358-1.348 3.917-1.021-.357 1.347-3.918Zm41.497 5.584a26.328 26.328 0 0 0 0-4.147l-1.081.11a23.851 23.851 0 0 1 0 3.928l1.081.109Z"/>
  <path fill="#3B3640" d="M115.352 47.567c2.38 0 4.759-.546 6.165-1.637 1.298-.982 1.515-2.4.649-3.928l-.973.545c.649.982.432 1.855-.433 2.51-2.488 1.964-9.193 1.855-11.14-.109-.325-.327-1.19-1.2.324-3.164l-.865-.655c-1.839 2.4-.974 3.928-.217 4.583 1.298 1.31 3.894 1.855 6.49 1.855Z"/>
  <path fill="#fff" d="M61.697 58.714c-12.456-.845-22.147-7.623-21.645-15.139.5-7.515 11.005-12.922 23.46-12.077 12.457.846 22.148 7.624 21.647 15.14-.502 7.515-11.006 12.922-23.462 12.076Z"/>
  <path fill="#3B3640" d="M63.974 59.351c11.573 0 20.984-5.455 21.525-12.657.54-7.856-9.41-14.84-22.173-15.713-6.165-.436-12.006.655-16.549 2.946-4.65 2.401-7.247 5.784-7.571 9.602-.541 7.857 9.41 14.84 22.172 15.713.866.11 1.731.11 2.596.11Zm-3.352-27.388c.865 0 1.73 0 2.487.11 12.114.872 21.632 7.31 21.2 14.62-.433 7.312-10.817 12.44-22.93 11.567-12.114-.873-21.633-7.31-21.2-14.621.216-3.492 2.704-6.547 6.923-8.73 3.894-1.964 8.544-2.946 13.52-2.946Z"/>
  <path fill="#3B3640" d="M79.009 55.205c.108-.764.216-1.855.216-2.946.108-1.092.216-2.074.216-2.837l-1.081-.11a21.933 21.933 0 0 0-.217 2.947c-.108 1.09-.216 2.073-.216 2.837l1.082.109ZM68.408 58.26c.108-.982.216-2.074.324-3.274a167 167 0 0 1 .325-3.273l-1.082-.11c-.108.983-.216 2.074-.324 3.274a167 167 0 0 1-.325 3.273l1.082.11Zm-10.274.107c.217-2.182.65-4.365 1.19-6.438l-1.081-.218c-.541 2.182-.974 4.365-1.19 6.547l1.081.109Z"/>
  <path fill="#fff" d="M62.156 51.52C49.7 50.674 39.9 45.504 40.27 39.973c.37-5.532 10.766-9.33 23.222-8.485 12.456.846 22.254 6.016 21.885 11.547-.37 5.532-10.766 9.33-23.221 8.485Z"/>
  <path fill="#3B3640" d="M65.381 52.258c4.759 0 9.302-.654 12.87-1.964 4.652-1.636 7.248-4.255 7.464-7.092.432-5.892-9.41-11.24-22.389-12.112-6.057-.437-11.898.218-16.332 1.855-4.651 1.637-7.247 4.255-7.463 7.092-.433 5.893 9.41 11.24 22.389 12.112 1.081.11 2.271.11 3.461.11Zm-5.625-20.295c1.082 0 2.272 0 3.462.109 11.897.764 21.74 5.892 21.415 11.02-.216 2.401-2.595 4.693-6.705 6.22-4.327 1.528-9.951 2.183-15.9 1.855-11.898-.764-21.74-5.892-21.416-11.02.217-2.401 2.596-4.692 6.706-6.22 3.461-1.31 7.788-1.964 12.438-1.964Z"/>
  <path fill="#fff" d="M62.273 49.779c-10.966-.745-19.608-5.053-19.304-9.622.305-4.57 9.442-7.67 20.408-6.926 10.966.745 19.608 5.052 19.303 9.622-.304 4.57-9.44 7.67-20.407 6.926Z"/>
  <path fill="#3B3640" d="M65.272 50.402c4.11 0 8.003-.546 11.14-1.637 4.11-1.419 6.382-3.492 6.598-5.892.216-2.401-1.839-4.801-5.732-6.765-3.678-1.855-8.653-3.056-14.061-3.383-11.357-.764-20.659 2.51-20.983 7.42-.325 4.91 8.328 9.384 19.793 10.147 1.082.11 2.163.11 3.245.11Zm-5.3-16.695c.974 0 2.055 0 3.137.109 5.191.327 10.059 1.527 13.628 3.273 3.353 1.637 5.3 3.71 5.083 5.675-.108 1.964-2.271 3.71-5.84 4.91-3.786 1.31-8.761 1.745-13.953 1.418-10.492-.764-19.036-4.8-18.82-9.056.325-3.492 7.68-6.33 16.765-6.33ZM49.48 55.205c.217-.873.325-1.856.542-2.838.216-.982.432-2.073.54-2.946l-1.081-.218c-.216.873-.433 1.855-.54 2.946-.217.982-.434 1.964-.542 2.837l1.082.219Zm-7.203-9.528 1.022.357-1.347 3.918-1.022-.358 1.347-3.917Zm41.706 5.381a26.525 26.525 0 0 0 0-4.147l-1.081.11a23.851 23.851 0 0 1 0 3.928l1.081.109Z"/>
  <path fill="#3B3640" d="M62.567 44.729c2.38 0 4.76-.546 6.166-1.637 1.297-.982 1.513-2.4.648-3.928l-.973.545c.649.982.433 1.855-.433 2.51-2.487 1.964-9.193 1.855-11.14-.109-.325-.327-1.19-1.2.324-3.164l-.865-.655c-1.839 2.4-.973 3.928-.216 4.583 1.297 1.2 3.893 1.855 6.49 1.855Z"/>
  <path fill="#fff" d="M89.065 44.526c-12.456-.846-22.147-7.624-21.646-15.14.502-7.515 11.005-12.922 23.461-12.076 12.456.845 22.147 7.623 21.646 15.139-.501 7.516-11.005 12.922-23.461 12.077Z"/>
  <path fill="#3B3640" d="M91.451 45.165c5.192 0 10.059-1.091 13.953-3.055 4.651-2.4 7.247-5.783 7.571-9.603.541-7.856-9.41-14.84-22.173-15.712-12.763-.873-23.579 4.8-24.011 12.548-.541 7.856 9.41 14.84 22.172 15.713.758.109 1.623.109 2.488.109Zm-3.353-27.388c.866 0 1.623 0 2.488.109 12.114.873 21.632 7.31 21.199 14.621-.216 3.492-2.704 6.547-6.922 8.73-4.326 2.291-10.059 3.273-15.9 2.837-12.113-.873-21.632-7.311-21.2-14.622.434-6.765 9.303-11.675 20.335-11.675Z"/>
  <path fill="#3B3640" d="M106.483 41.018c.108-.764.216-1.855.216-2.837.108-1.091.216-2.182.324-2.946l-1.081-.109c-.108.764-.217 1.855-.325 2.946-.108.982-.216 2.073-.216 2.837l1.082.11Zm-10.599 2.946c.108-.982.217-2.183.325-3.274.108-1.2.216-2.291.324-3.273l-1.081-.11c-.109.983-.216 2.074-.325 3.274-.108 1.2-.216 2.291-.325 3.274l1.082.109Zm-10.38.218c.216-2.182.649-4.364 1.19-6.437l-1.082-.219c-.541 2.183-.973 4.365-1.19 6.547l1.082.11Z"/>
  <path fill="#fff" d="M89.63 37.339c-12.456-.846-22.254-6.015-21.885-11.547.369-5.531 10.765-9.33 23.221-8.484 12.456.845 22.254 6.015 21.885 11.547-.369 5.531-10.765 9.33-23.22 8.484Z"/>
  <path fill="#3B3640" d="M92.75 38.073c4.759 0 9.301-.655 12.87-1.964 4.651-1.637 7.248-4.256 7.464-7.093.433-5.892-9.41-11.239-22.39-12.112-12.978-.873-23.47 3.056-23.794 9.057-.433 5.892 9.41 11.239 22.389 12.112 1.19-.11 2.379 0 3.46 0Zm-5.408-20.296c1.081 0 2.163 0 3.353.11 11.897.763 21.74 5.892 21.415 11.02-.216 2.4-2.595 4.692-6.706 6.22-4.326 1.527-9.95 2.182-15.9 1.855-11.897-.764-21.74-5.892-21.415-11.021.217-4.801 8.761-8.184 19.253-8.184Z"/>
  <path fill="#fff" d="M89.748 35.598c-10.966-.744-19.609-5.052-19.304-9.622.305-4.57 9.441-7.67 20.407-6.925 10.966.744 19.609 5.052 19.304 9.621-.305 4.57-9.441 7.67-20.407 6.926Z"/>
  <path fill="#3B3640" d="M92.751 36.219c9.843 0 17.306-3.055 17.631-7.53.324-4.91-8.329-9.383-19.794-10.147-5.408-.327-10.491.218-14.385 1.528-4.11 1.418-6.381 3.491-6.598 5.892-.216 2.4 1.839 4.801 5.733 6.765 3.677 1.855 8.652 3.055 14.06 3.383v-.546.546c1.19.109 2.272.109 3.353.109Zm-5.408-16.695c1.082 0 2.164 0 3.245.11 10.492.763 19.036 4.8 18.82 9.056-.325 4.146-9.302 7.092-19.793 6.438-5.192-.328-10.06-1.528-13.628-3.274-3.353-1.636-5.3-3.71-5.084-5.674.109-1.964 2.272-3.71 5.841-4.91 2.812-1.2 6.49-1.746 10.6-1.746ZM76.85 41.018c.216-.873.433-1.855.54-2.946.217-.982.433-1.964.542-2.837l-1.082-.218c-.216.872-.324 1.854-.54 2.837-.217.982-.433 2.073-.542 2.946l1.082.218Zm-7.009-9.313 1.022.358-1.346 3.917-1.022-.357 1.346-3.918Zm41.511 5.167a26.33 26.33 0 0 0 0-4.146l-1.081.109c.108 1.31.108 2.619 0 3.928l1.081.109Z"/>
  <path fill="#3B3640" d="M89.936 30.543c2.38 0 4.76-.545 6.165-1.636 1.298-.983 1.515-2.401.65-3.929l-.974.546c.649.982.432 1.855-.433 2.51-2.488 1.964-9.193 1.855-11.14-.11-.325-.327-1.19-1.2.324-3.164l-.865-.655c-1.839 2.401-.974 3.929-.217 4.583 1.298 1.2 3.894 1.855 6.49 1.855Z"/>
  <path fill="#fff" d="m232.37 34.978-5.404 28.987c-.432 2.078-.973 4.047-1.838 6.016-1.621 3.938-4.755 7-8.646 8.641l-92.301 37.956c-3.567 1.422-7.566 1.203-10.917-.766l-59.66-34.237c-2.81-1.64-4.432-4.813-4-7.985l.433-3.719c0-.109.108-.218.216-.109l64.849 36.206c2.918 1.64 6.377 1.968 9.619.875 16.861-5.688 71.009-24.72 87.329-38.394 6.809-5.797 18.915-30.736 20.32-33.69.108-.109 0 .22 0 .22Z"/>
  <path fill="#3B3640" d="M119.534 118c1.622 0 3.351-.328 4.864-.985L216.7 79.06c4.107-1.641 7.241-4.813 8.97-8.97.865-1.969 1.405-4.047 1.838-6.125l5.404-28.986c.108-.329.216-.766-.325-.985l-.432-.11-.216.438c-1.405 2.844-13.402 27.893-20.211 33.471-16.212 13.564-70.793 32.706-87.114 38.284-3.026.985-6.376.766-9.187-.875L50.579 68.996a.682.682 0 0 0-.649 0c-.216.11-.324.329-.432.547l-.432 3.72c-.433 3.5 1.297 6.781 4.323 8.531l59.66 34.237c2.054 1.422 4.324 1.969 6.485 1.969Zm111.648-79.521-4.647 25.377c-.325 1.968-.973 4.047-1.729 5.906-1.621 3.829-4.54 6.782-8.323 8.313l-92.301 37.956c-3.458 1.422-7.241 1.203-10.376-.656l-59.66-34.237c-2.595-1.531-4.108-4.485-3.784-7.438l.325-3.172 64.416 35.877c3.027 1.751 6.701 2.079 10.052.875 16.428-5.578 71.117-24.72 87.437-38.502 5.512-4.704 14.7-22.424 18.59-30.3Z"/>
  <path fill="#fff" d="m146.878.742-20.427 33.034-76.198 35.44c-.432.219-.432.765 0 .984l62.795 34.456c4.323 2.406 6.593 4.594 13.943 1.75 18.158-7.11 52.852-18.377 71.225-29.315 4.216-2.516 12.538-6.891 17.185-12.36 5.188-6.235 15.564-27.017 16.861-29.752.108-.11 0-.328-.108-.438L147.526.523c-.216 0-.432 0-.648.22Z"/>
  <path fill="#3B3640" d="M121.155 108.374c1.621 0 3.567-.437 6.161-1.421 4.431-1.751 10.051-3.829 15.995-5.907 18.482-6.782 41.504-15.095 55.338-23.408.541-.328 1.189-.656 1.838-1.094 4.539-2.625 11.348-6.563 15.455-11.485 5.296-6.235 15.78-27.455 16.969-29.861a.705.705 0 0 0 0-.657c-.108-.218-.216-.437-.433-.437L147.851.086c-.432-.219-.973 0-1.297.437l-20.319 32.925-75.981 35.44c-.324.218-.649.546-.649.984 0 .437.217.766.54.984l62.796 34.456c.54.328.973.547 1.405.765 2.162 1.204 3.999 2.297 6.809 2.297Zm110.567-73.395c-1.621 3.281-11.673 23.408-16.644 29.424-3.999 4.703-10.7 8.64-15.132 11.157-.648.437-1.297.765-1.837 1.094-13.727 8.203-36.64 16.626-55.122 23.298-5.944 2.188-11.456 4.157-15.995 5.907-6.269 2.406-8.539 1.094-11.998-.875a9.88 9.88 0 0 1-1.405-.875L50.794 69.653l76.305-35.55L147.311 1.07l84.411 33.909Z"/>
  <path fill="#3B3640" d="m219.619 39.902-14.266 20.564c-.649.985-1.946 1.313-3.027.766L141.585 31.26c-1.297-.656-1.73-2.297-.973-3.61l11.565-16.954c.648-.984 1.837-1.313 2.918-.875l63.335 26.361c1.621.656 2.162 2.407 1.189 3.72Zm-40.425 38.94c.433 0 .865-.11 1.189-.328l8.43-4.485c.865-.437 1.298-1.313 1.406-2.188 0-.984-.433-1.75-1.189-2.297l-7.134-4.484c-.756-.438-1.729-.547-2.485-.11l-8.539 4.485c-.865.438-1.405 1.313-1.405 2.188 0 .875.432 1.86 1.189 2.297l7.241 4.594c.432.11.865.328 1.297.328Zm1.297-13.235c.325 0 .541.109.757.218l7.133 4.485c.432.328.757.766.757 1.313 0 .547-.325.984-.757 1.312l-8.43 4.485c-.432.219-1.081.219-1.514 0l-7.241-4.594c-.432-.328-.756-.766-.648-1.313 0-.547.324-.984.757-1.312l8.538-4.485c.216 0 .432-.11.648-.11Zm-21.615 22.095c.432 0 .756-.109 1.188-.328l8.647-4.703c.756-.438 1.297-1.204 1.297-2.079 0-.875-.433-1.75-1.189-2.187l-7.349-4.594c-.757-.438-1.622-.547-2.487-.11l-8.754 4.594c-.756.438-1.297 1.204-1.297 2.079 0 .875.432 1.75 1.189 2.187l7.457 4.704c.433.328.865.437 1.298.437Zm9.294-5.906-8.646 4.703a1.586 1.586 0 0 1-1.405 0l-7.458-4.703c-.432-.219-.648-.766-.648-1.204 0-.546.324-.984.757-1.203l8.754-4.594a1.586 1.586 0 0 1 1.405 0l7.349 4.594c.433.219.649.766.649 1.203 0 .438-.324.985-.757 1.204Zm-7.239-12.688c.54 0 .972-.11 1.405-.329l7.349-3.937c.973-.547 1.622-1.532 1.622-2.625 0-1.094-.541-2.188-1.514-2.735l-6.16-3.828c-.973-.547-2.054-.657-3.027-.11l-7.457 3.938a3.412 3.412 0 0 0-1.73 2.625 3.45 3.45 0 0 0 1.514 2.844l6.16 3.938c.757.11 1.297.219 1.838.219Zm1.296-12.908c.325 0 .757.11 1.081.328l6.161 3.829c.649.437.973 1.094.973 1.86 0 .765-.433 1.421-1.081 1.75l-7.349 3.937c-.649.328-1.405.329-2.054-.11l-6.161-3.937c-.648-.437-.972-1.094-.972-1.86a1.95 1.95 0 0 1 1.08-1.75l7.458-3.937c.216-.11.54-.11.864-.11Zm-20.21 21.767c.432 0 .864-.11 1.297-.328l7.89-4.266c.864-.438 1.513-1.422 1.513-2.407 0-1.093-.433-1.968-1.297-2.515l-6.593-4.157c-.865-.547-1.945-.547-2.81-.11l-7.998 4.157c-.865.438-1.514 1.422-1.514 2.407 0 1.093.433 1.969 1.298 2.515l6.701 4.266c.432.22.972.438 1.513.438Zm1.297-13.126c.324 0 .648.11.973.219l6.592 4.156c.541.329.865.875.865 1.532 0 .656-.324 1.203-.972 1.531l-7.891 4.266c-.54.328-1.189.219-1.729-.11l-6.701-4.265c-.54-.329-.865-.985-.865-1.532 0-.656.433-1.203.973-1.531l7.998-4.156c.216 0 .432-.11.757-.11Zm-21.187 21.877c.432 0 .973-.11 1.405-.328l7.566-4.047c.972-.547 1.513-1.422 1.621-2.516 0-1.094-.54-2.078-1.405-2.625l-6.377-4.047c-.865-.547-2.054-.547-2.918-.11l-7.674 4.047c-.973.547-1.513 1.422-1.621 2.516 0 1.094.432 2.078 1.405 2.625l6.484 4.047c.433.22.974.438 1.514.438Zm8.538-5.47-7.565 4.048c-.649.328-1.298.328-1.946-.11l-6.485-4.047c-.54-.328-.973-.984-.864-1.75 0-.656.432-1.312.972-1.64l7.674-4.048c.54-.328 1.297-.328 1.838.11l6.376 4.047c.541.328.973.984.865 1.75-.108.766-.324 1.313-.865 1.64Zm-27.017 14.548c.432 0 .865-.11 1.189-.328l8.538-4.594c.865-.438 1.297-1.203 1.297-2.188 0-.984-.432-1.75-1.189-2.297l-7.241-4.484c-.757-.438-1.729-.547-2.486-.11l-8.539 4.485c-.864.437-1.296 1.203-1.405 2.187-.108.985.433 1.75 1.19 2.297l7.349 4.595c.324.328.865.437 1.297.437Zm1.297-13.126c.216 0 .54.11.756.219l7.242 4.485c.432.328.756.765.648 1.312-.108.547-.324.985-.756 1.203l-8.538 4.595a1.588 1.588 0 0 1-1.406 0l-7.35-4.595c-.431-.328-.756-.765-.648-1.312 0-.547.325-.985.757-1.203l8.538-4.485c.325-.219.54-.219.757-.219Zm37.396-22.094c.324 0 .757-.11 1.081-.22l8.322-4.265c.757-.438 1.297-1.203 1.297-2.078 0-.875-.432-1.75-1.188-2.188l-7.026-4.266c-.756-.437-1.513-.437-2.27-.11l-8.43 4.267c-.757.437-1.297 1.203-1.297 2.078 0 .875.433 1.75 1.189 2.188l7.133 4.375c.324.11.757.219 1.189.219Zm1.297-12.36c.216 0 .433.109.649.218l7.025 4.266c.432.219.648.656.648 1.203 0 .438-.324.875-.756 1.094l-8.323 4.266a1.362 1.362 0 0 1-1.296 0l-7.134-4.375c-.432-.22-.648-.657-.648-1.203 0-.547.324-.876.757-1.094l8.43-4.266c.216-.11.432-.11.648-.11Zm-19.455 20.562c.433 0 .865-.109 1.297-.328l7.458-3.828c.973-.438 1.513-1.422 1.513-2.407 0-1.093-.432-1.968-1.405-2.515l-6.269-3.72c-.864-.546-1.837-.546-2.702-.109L116.51 59.7c-.973.437-1.513 1.422-1.513 2.406 0 1.094.432 1.969 1.404 2.516l6.269 3.828c.541.219.973.328 1.513.328Zm8.215-5.14-7.458 3.828c-.541.328-1.189.219-1.729-.11l-6.269-3.828a1.749 1.749 0 0 1-.865-1.531c0-.657.433-1.203.973-1.532l7.566-3.828c.54-.219 1.189-.219 1.621.11l6.268 3.718c.541.329.865.875.865 1.532 0 .656-.432 1.312-.972 1.64ZM106.024 77.42c.433 0 .865-.11 1.189-.328l7.783-4.047a2.555 2.555 0 0 0 1.404-2.297c0-.985-.432-1.86-1.296-2.407l-6.485-3.938c-.757-.437-1.73-.546-2.595-.109l-7.781 3.938c-.865.437-1.405 1.313-1.513 2.297 0 .984.432 1.86 1.297 2.406l6.593 4.047c.54.329.972.438 1.404.438Zm8.539-5.25-7.782 4.047c-.54.219-1.08.219-1.513 0l-6.593-4.047c-.54-.329-.757-.876-.757-1.422 0-.547.325-1.094.865-1.422l7.782-3.938c.432-.219 1.081-.219 1.513.11l6.485 3.937c.541.328.757.875.757 1.422 0 .547-.216.984-.757 1.313ZM87.65 85.185c.432 0 .864-.11 1.188-.329l7.674-3.937c.865-.438 1.405-1.313 1.513-2.407.108-1.093-.432-1.969-1.296-2.406l-6.377-3.828c-.757-.438-1.73-.547-2.594-.11l-7.674 3.829c-.865.437-1.513 1.312-1.513 2.406 0 .984.432 1.969 1.297 2.516l6.485 3.938c.324.218.864.328 1.297.328Zm8.43-5.141-7.674 3.938c-.54.218-1.08.218-1.621-.11L80.3 79.934c-.54-.328-.865-.875-.757-1.531 0-.656.325-1.203.865-1.422l7.674-3.828c.54-.22 1.081-.22 1.621.109l6.377 3.828c.54.329.864.876.756 1.532-.108.656-.215 1.094-.756 1.422Zm30.264-28.22c.325 0 .649-.11.973-.219l8.106-4.156a1.95 1.95 0 0 0 1.081-1.75c0-.766-.324-1.422-.973-1.86l-6.917-4.156c-.54-.329-1.297-.438-1.946-.11l-8.214 4.047a1.952 1.952 0 0 0-1.081 1.75c0 .766.325 1.422.973 1.86l7.026 4.266c.216.219.54.328.972.328Zm8.539-5.36-8.106 4.157c-.325.11-.649.11-.865 0l-7.025-4.266c-.324-.219-.433-.547-.433-.875 0-.328.216-.656.541-.875l8.214-4.047c.324-.11.649-.11.865 0l6.917 4.156c.324.219.432.547.432.875 0 .328-.216.766-.54.875Zm-26.587 12.908a3.3 3.3 0 0 0 1.406-.328l6.052-3.063c.973-.547 1.621-1.531 1.621-2.625s-.54-2.188-1.513-2.734l-4.972-2.954c-.865-.547-1.945-.547-2.918-.11l-6.052 3.064c-.973.547-1.622 1.53-1.622 2.625 0 1.093.541 2.187 1.513 2.734l4.972 3.063c.433.219.973.328 1.513.328Zm1.081-11.048c.324 0 .648.11.973.22l4.972 2.953c.648.328.972.984.972 1.75 0 .765-.432 1.312-1.081 1.64l-6.052 3.063c-.54.328-1.297.328-1.837-.11l-4.972-3.062c-.649-.328-.973-.984-.973-1.75s.433-1.313 1.081-1.64l6.053-3.064h.864ZM90.353 68.232c.324 0 .756-.11 1.08-.219l7.35-3.719c.757-.438 1.297-1.203 1.297-2.078 0-.875-.432-1.75-1.188-2.188L92.73 56.31c-.649-.437-1.513-.437-2.27-.11l-7.457 3.72c-.757.437-1.298 1.203-1.298 2.078 0 .875.433 1.75 1.19 2.188l6.268 3.828c.433.11.864.219 1.189.219Zm1.189-11.157c.216 0 .432.11.648.219l6.161 3.719c.433.218.648.656.648 1.203s-.324.875-.756 1.094l-7.35 3.719a1.363 1.363 0 0 1-1.296 0l-6.27-3.829c-.432-.219-.648-.656-.648-1.203s.324-.875.757-1.094l7.457-3.719c.216-.11.433-.11.649-.11ZM71.115 76.873c.54 0 .972-.11 1.404-.328l5.62-2.953c1.082-.547 1.73-1.532 1.73-2.735 0-1.203-.54-2.297-1.513-2.844l-4.54-2.735c-.972-.546-2.053-.656-3.026-.109l-5.728 2.844c-1.081.547-1.73 1.531-1.73 2.735 0 1.203.541 2.297 1.514 2.953l4.647 2.844c.54.219 1.081.328 1.622.328Zm6.7-4.156-5.62 2.953c-.648.328-1.405.328-2.053-.11l-4.648-2.843c-.648-.438-1.08-1.094-1.08-1.97 0-.765.432-1.53 1.188-1.859l5.729-2.844c.648-.328 1.405-.328 2.053.11l4.54 2.734c.648.438 1.08 1.094 1.08 1.86-.108.875-.54 1.531-1.188 1.969Zm68.847 15.313-6.701-4.922c-.649-.438-1.513-.547-2.162-.219l-21.184 10.5c-1.513.766-1.621 2.845-.216 3.83l6.917 4.703c.649.437 1.405.437 2.162.109l20.968-10.282c1.297-.656 1.513-2.735.216-3.719Z"/>
  <path fill="#fff" d="m192.939 30.637.979.464-6.741 14.56-.979-.465 6.741-14.56Zm-25.349-10.24.978.464-6.739 14.562-.979-.464 6.74-14.562Zm6.706 10.209 8.37 3.831-.445.997-8.371-3.831.446-.997Z"/>
  <path fill="#fff" d="m179.904 28.711.969.485-4.219 8.627-.969-.485 4.219-8.627Z"/>
</svg>
