<svg viewBox="0 0 1000 1000" width="1000" height="1000" xmlns="http://www.w3.org/2000/svg"><rect fill="#ffd3b3" height="950" rx="475" width="950" x="25" y="25"/><circle cx="500" cy="354.4" fill="#f96632" r="145.6"/><path d="M641.3 354.4q0 5.9-.5 11.7l-.5 5.6-.2 1.4s-.1.7 0 .2v.4l-.5 2.8a144.8 144.8 0 0 1-5.2 21.8q-1.7 5.2-3.8 10.2l-.2.6a126 126 0 0 1-1.8 4q-1 2.4-2.3 4.8a145.3 145.3 0 0 1-11.2 18.5l-3.3 4.5-.2.3-.9 1-1.8 2.2q-3.4 4.2-7.1 8t-7.9 7.6l-4 3.5-2 1.7-1.1.8-.5.4c-.5.4.8-.6-.2.1a150.8 150.8 0 0 1-18.1 11.8c-3.2 1.8-6.5 3.4-9.8 5l-2.3 1-1.2.5-.8.3-5 2a144.8 144.8 0 0 1-21.4 6q-2.8.6-5.7 1l-2.5.4h-.7l-1.6.2q-5.7.7-11.5 1a146.8 146.8 0 0 1-23-1l-1.4-.2h.2-.8a123 123 0 0 1-8.3-1.5q-5.5-1.1-10.9-2.7t-10.6-3.4l-5-2-.7-.3s.5.3 0 0l-1.2-.5-2.4-1a146 146 0 0 1-19.2-10.7q-4.4-3-8.7-6.2l-.5-.4-1-.8-2.2-1.8-4-3.5a146 146 0 0 1-15-15.5l-1.6-2.1-.8-1-.4-.5-3.3-4.5q-3.1-4.5-6-9.1t-5.1-9.5l-2.4-4.8-1-2.5-.4-1c.1.5-.1 0-.1-.1l-.4-1a144.2 144.2 0 0 1-6.7-21q-1.3-5.4-2.2-11l-.4-2.6c0-.1-.1-.8 0 0v-.6l-.3-1.6-.5-5.6a147.4 147.4 0 0 1 0-23l.6-5.9.2-1.4v-.4l.5-3q1-5.6 2.3-11a149 149 0 0 1 6.8-21l.2-.5c-.3.7 0 0 0 0l.5-1.2 1.1-2.6 2.5-5q2.4-4.8 5.2-9.4t6-9.1l1.5-2 .8-1 .4-.7.3-.3.1-.2.5-.6.8-1 1.8-2.3a146 146 0 0 1 15-15.4l4-3.5 2.1-1.7 1-.7.2-.2.4-.3q4.3-3.3 8.9-6.3a145.8 145.8 0 0 1 19-10.4l2.4-1 .6-.3 1.4-.6 5.1-2a144.9 144.9 0 0 1 21.4-6l5.4-1 2.8-.4h-.1.8l1.6-.3a148.2 148.2 0 0 1 23-.8c3.8.2 7.6.5 11.4 1l1.2.1.7.1 3 .5 5.5 1a145.3 145.3 0 0 1 21.4 6.1 102 102 0 0 1 5.2 2.1l.4.2 1 .4 2.7 1.2q5 2.3 9.8 5t9.2 5.6l4.6 3.1 2 1.5 1 .8.7.5a145.7 145.7 0 0 1 16 14.4q3.7 4 7.2 8.2l1.7 2 .7 1s.5.6 0 0l.5.5 3.1 4.4a145.6 145.6 0 0 1 11.2 18.7l2.3 5 1.1 2.4.2.4.6 1.4 3.8 10.4a144 144 0 0 1 5.2 21.8l.4 2.8v.6a66.6 66.6 0 0 1 .8 6.8q.4 5.6.4 11.2a4.3 4.3 0 1 0 8.5 0 149 149 0 0 0-27.4-86.4 153.2 153.2 0 0 0-31.6-32.7A149.7 149.7 0 0 0 384.6 259a152.6 152.6 0 0 0-23.4 39.1 148.6 148.6 0 0 0-10.6 45 149.9 149.9 0 0 0 179.6 158.1 148.6 148.6 0 0 0 42.6-15.8 150.3 150.3 0 0 0 61.3-64 148.4 148.4 0 0 0 13.9-43.6 155.8 155.8 0 0 0 1.8-23.4 4.3 4.3 0 0 0-8.5 0z" fill="#f96632"/><path d="M343.3 307.7H690c5.5 0 5.6-8.6 0-8.6H343.3c-5.5 0-5.5 8.6 0 8.6z" fill="#ffd3b3"/><path d="M870.5 876.1c1.3-5.2 4.2-10.5 9-12.8s11.9-.3 13.3 5c-.8-8 4.6-16.2 12.1-19s16.6-1 22.5 4.6a26.4 26.4 0 0 1 7.9 22 6.8 6.8 0 1 1 12.6 5.2c1.7-4.4 8.1-5.1 12-2.4s5.6 7.4 6.7 12c2.1 9.2 2.1 19.6-3.3 27.4a34.9 34.9 0 0 1-9.5 8.8 72.6 72.6 0 0 1-53.7 10.9" fill="#9fbdff"/><path d="M874.6 877.3a35.2 35.2 0 0 1 1-3s.5-1.2 0-.3a24 24 0 0 1 2-3.5c.2-.3.5-.7.1-.2l.7-.8a17.9 17.9 0 0 1 1.4-1.3c.8-.8-.7.4.3-.2l.8-.5.8-.5c-.8.5-.3.1.1 0s1.2-.4 1.5-.3h-.4 2c1 0-.9-.2.1 0l1.5.4c1 .3-.8-.4 0 0l.7.4c.2 0 .6.2.7.4a3 3 0 0 0-.3-.2l.3.3.5.5c.3.3-.4-.7 0 0l.4.7-.2-.4c0 .2 0 .4.2.5a4.3 4.3 0 0 0 4.6 3.1c2-.3 4-2 3.8-4.2a19.4 19.4 0 0 1 0-3.2c0-.2.1-.8 0 0v-.6a17.6 17.6 0 0 1 .5-1.8l.5-1.3c-.3.8 0 .2 0 0l.4-.8.8-1.4.4-.6.3-.5.4-.4.5-.5 1-1 .5-.5.4-.4.3-.2.7-.5 1.4-.8.9-.4c.1 0 .7-.2 0 0a26.2 26.2 0 0 1 3.2-1h.7c-.8.1-.2 0 0 0l1.7-.2h2.8a26.7 26.7 0 0 1 3 .7l1.6.6.4.1.6.4a22.7 22.7 0 0 1 2.8 1.6l.6.4c-.6-.4 0 0 0 0l1.4 1.3 1.2 1.3.5.6c.5.4-.3-.5 0 0a33.9 33.9 0 0 1 2 3l.8 1.8c0-.2-.3-.8 0 0l.4 1a26.8 26.8 0 0 1 1 3.8l.1.7c.2.8 0-.3 0 .2l.2 2a28.5 28.5 0 0 1-.2 4c-.2 2 1.8 3.9 3.7 4.1 2.3.3 4-1 4.7-3-.4 1 .2-.2.3-.4-.5.8 0 .1.2-.1.4-.3.3-.3-.1 0l.4-.2c.2-.1 1.3-.6.3-.2l.9-.3c.5-.1.4-.1-.2 0h1-.2s1.3.3.7 0l.6.5c-.8-.5-.2 0 0 .1s.4.3 0-.1a6.2 6.2 0 0 1 .4.5c.2.2.5 1.1.2.1a8.2 8.2 0 0 1 .3 1l.1.6c0-.6-.1-.7 0-.2a3.9 3.9 0 0 1 0 .5v-.3c0 .2-.5 1.5 0 .5-.9 2-.7 4.6 1.5 5.8 1.9 1 5 .7 5.9-1.5a5.3 5.3 0 0 0 .5-1c0-.4-.6.5-.2.2a1.7 1.7 0 0 0 .3-.3 4 4 0 0 1 .4-.3l-.2.1.4-.2c.7-.5 0 0-.1 0l1-.3h.4c.9-.3-.2 0-.2 0h1.6c.6 0-1-.3 0 0l.9.1a3 3 0 0 1 .5.2s-1-.5-.2 0l1 .5.4.3c-.7-.5 0 0 .1.2l1 .9c0 .1.4.6 0 0l.3.4a27.4 27.4 0 0 1 1.4 2.7c.3.4 0 0 0-.2a21.3 21.3 0 0 1 .7 2 39.7 39.7 0 0 1 1.7 7.1V896.3a49.2 49.2 0 0 1 .3 6c0 1 0 2-.2 2.9V905.8l-.3 1.6a28.8 28.8 0 0 1-.8 2.9l-.4 1-.3.8c.3-.6 0 0 0 .3a24 24 0 0 1-1.4 2.4l-.8 1.2-.1.1-.5.6a34.5 34.5 0 0 1-9.2 7.5q-2.6 1.6-5.3 3l-2.8 1.4-1.3.6c-.5.2 0 0 0 0l-1 .3a73.5 73.5 0 0 1-11.7 3.6l-3.5.6-.6.1-.7.1-.5.1-1 .1a71.5 71.5 0 0 1-13.7.2l-1.7-.2c-.2 0-1.6-.2-.9 0l-3.7-.7c-2.2-.4-4.7.6-5.2 3-.5 2.1.6 4.8 3 5.2a77.3 77.3 0 0 0 55-10 45.2 45.2 0 0 0 11.1-9 29.7 29.7 0 0 0 6.3-13 42.3 42.3 0 0 0 .5-14 43.8 43.8 0 0 0-3.8-14 15.6 15.6 0 0 0-11.5-9c-4.8-.6-10.3 1.3-12.4 6l7.4 4.3A11.3 11.3 0 0 0 946 868a11 11 0 0 0-8.6.2 11.3 11.3 0 0 0-6.2 6.5l8.4 1.1c1.1-11.1-4.1-23-14-28.6s-23.2-4.6-31 4.1a22.9 22.9 0 0 0-6 17l8.5-1.2c-2.2-7-10.1-10.3-16.9-8.5-7.5 2-12 9.4-13.8 16.4a4.3 4.3 0 0 0 8.3 2.3z" fill="#9fbdff"/><path d="M481.1 741.4h311v148h-311z" fill="#6c77c1"/><path d="M792.1 885H481.1l4.3 4.3V741.4l-4.3 4.3h311l-4.3-4.3V889a2 2 0 0 1 0 .3 4.3 4.3 0 0 0 8.6 0V759.6c0-6 .2-12 0-18v-.3a4.3 4.3 0 0 0-4.3-4.2H481.1a4.3 4.3 0 0 0-4.2 4.3V871c0 6-.2 12 0 18a2 2 0 0 1 0 .3 4.3 4.3 0 0 0 4.2 4.2h311a4.3 4.3 0 0 0 0-8.5z" fill="#6c77c1"/><path d="M498.6 742v139.4a4.3 4.3 0 1 0 8.6 0V741.9a4.3 4.3 0 0 0-8.6 0zm83.3 0v139.4a4.3 4.3 0 1 0 8.5 0V741.9a4.3 4.3 0 0 0-8.6 0zm83.2 0v139.4a4.3 4.3 0 1 0 8.6 0V741.9a4.3 4.3 0 0 0-8.6 0zm83.2 0v139.4a4.3 4.3 0 1 0 8.6 0V741.9a4.3 4.3 0 0 0-8.6 0zm41.8 0v139.4a4.3 4.3 0 1 0 8.6 0V741.9a4.3 4.3 0 0 0-8.6 0z"/><path d="M493.7 728h316.7v20.1H493.7z"/><path d="M810.4 743.8H506.5c-4 0-8.2-.1-12.3 0h-.5l4.2 4.3V728l-4.2 4.3h303.9c4 0 8.2.1 12.3 0h.5l-4.3-4.3v20.1c0 5.5 8.6 5.5 8.6 0V728a4.3 4.3 0 0 0-4.3-4.3H493.7a4.3 4.3 0 0 0-4.3 4.3v20.1a4.3 4.3 0 0 0 4.3 4.3h316.7c5.5 0 5.5-8.6 0-8.6z"/><g fill="#ff983b"><path d="M836.1 883.5H867a4.3 4.3 0 1 0 0-8.5h-30.9a4.3 4.3 0 1 0 0 8.5z"/><path d="M839.5 880v-36.6c0 1 0 .2 0 0l.4-1.5.5-1.6c.1-.2.4-.7 0 .1l.5-.9a21.5 21.5 0 0 1 1.5-2.5c-.6 1 .4-.4.6-.6l1.2-1.1.6-.6c.4-.4-.8.6 0 0l1.3-.8 1.3-.7.6-.3c-1 .5.1 0 .3 0a24.8 24.8 0 0 1 3-.8c.6-.2-1.1 0 0 0h3.8c-1 0 .7.2 1 .3l1.2.3 1 .4c.8.3-.7-.4.1 0l3 1.8c.6.3-.7-.6 0 0l.8.7 1.1 1.1.5.6-.1-.2.3.4 1 1.6.7 1.4c-.4-.9 0-.2 0 0l.3 1a18.2 18.2 0 0 1 .5 1.8l.1.7c-.2-1 0 0 0 .2v6.1a4.3 4.3 0 1 0 8.6 0 45.4 45.4 0 0 0-.5-9.6 22.3 22.3 0 0 0-8.5-13 22.3 22.3 0 0 0-28.3 1.8 22.3 22.3 0 0 0-6.8 13.9 39.4 39.4 0 0 0-.1 4.6v32a4.3 4.3 0 0 0 8.6 0z"/><path d="M875.3 880v-36.6c0 1 0 .2 0 0l.4-1.5.5-1.6c0-.2.3-.7 0 .1l.4-.9a19.1 19.1 0 0 1 1.6-2.5 17.8 17.8 0 0 1 1.7-1.8l.6-.5c.5-.4-.8.6 0 0l1.3-.8 1.3-.7.6-.3c-1 .5.1 0 .3 0a24.7 24.7 0 0 1 3-.9c.7-.1-1 0 0 0h2.3l1.6.1a19.1 19.1 0 0 1 2.2.6l.9.3c.8.3-.7-.4.2 0l3 1.8c.5.4-.7-.6 0 0l.7.7 1.2 1.2a6.2 6.2 0 0 0 .5.6l-.2-.2.3.4 1 1.5.8 1.5c-.5-1-.1-.2 0 0l.3 1a18.2 18.2 0 0 1 .4 1.8l.1.6c-.1-1 0 0 0 .2v6.2a4.3 4.3 0 1 0 8.6 0 45.4 45.4 0 0 0-.6-9.7 22.2 22.2 0 0 0-8.5-12.9 22.3 22.3 0 0 0-28.2 1.7 22.3 22.3 0 0 0-6.8 13.9 39.4 39.4 0 0 0-.1 4.7v32a4.3 4.3 0 0 0 8.5 0z"/></g><path d="M486.4 879.3h424.2V929H486.4z" fill="#f96632" stroke="#f96632" stroke-miterlimit="10" stroke-width="2.9"/><path d="M88.6 899V767.5l405-210.4V899z" fill="#6c77c1"/><path d="M92.9 899V767.5l-2.1 3.7 10.8-5.6 29.6-15.3 43.5-22.7L228 700l58.4-30.3 58.8-30.6 54.7-28.4 46.3-24 33.3-17.3c5.2-2.7 10.6-5.3 15.7-8.2l.7-.3-6.4-3.7V885c0 4.4-.2 9 0 13.4v.6l4.3-4.3H88.6c-5.5 0-5.5 8.5 0 8.5h405.1a4.3 4.3 0 0 0 4.2-4.3V557.2a4.3 4.3 0 0 0-6.4-3.7l-10.8 5.7-29.6 15.3-43.5 22.7-53.2 27.6L296 655l-58.8 30.5-54.8 28.5-46.2 24-33.3 17.3c-5.3 2.7-10.6 5.3-15.8 8.2l-.6.3a4.2 4.2 0 0 0-2.2 3.7V899c0 5.5 8.6 5.5 8.6 0z" fill="#6c77c1"/><path d="M57.5 896.4a561.5 561.5 0 0 1 60.3-270.3 624.5 624.5 0 0 0-26 291.1"/><path d="M61.7 896.4q-.8-27.1 1-54.2a547.7 547.7 0 0 1 17.8-106.6 568.9 568.9 0 0 1 38-101.2l3-6.1-7.8-3.3q-9.3 27.3-16 55.5t-10.6 56.7q-4.1 28.9-5.6 58-1.4 28.9-.1 57.8c.8 19.4 2.6 38.8 5.2 58.1l1 7.3c.3 2.5 3.3 3.5 5.3 3 2.5-.7 3.3-3 3-5.3a610 610 0 0 1-6.2-113.8 627.4 627.4 0 0 1 14.8-113q6.3-28 15.2-55.4 1-3.4 2.2-6.7c1.5-4.6-5.6-7.7-7.8-3.3q-12.5 24.7-22.6 50.5-10 25.6-17.4 52T61.8 780a572.5 572.5 0 0 0-7 54.9q-2.3 27.3-1.8 54.8l.2 6.8a4.3 4.3 0 0 0 8.5 0z"/><path d="M493.7 595 163.4 766.4v131.4h330.3z" fill="#9fbdff"/><path d="m491.5 591.2-8.8 4.6-24.1 12.5-35.6 18.5-43.3 22.5-47.6 24.8-48 24.8-44.6 23.2-37.8 19.7-27 14-13 6.7-.5.3a4.2 4.2 0 0 0-2 3.7v115.2c0 5.3-.3 10.7 0 16a1.8 1.8 0 0 1 0 .2 4.3 4.3 0 0 0 4.2 4.3h330.3a4.3 4.3 0 0 0 4.2-4.3V595c0-5.5-8.5-5.5-8.5 0v290.7c0 4-.2 7.9 0 11.8v.5l4.3-4.3H163.4l4.3 4.3V766.5l-2.1 3.7 8.8-4.6 24-12.5 35.6-18.5 43.4-22.5 47.6-24.7 48-25 44.6-23.1 37.7-19.6 27.2-14.1 12.8-6.7.5-.3a4.3 4.3 0 1 0-4.3-7.4z" fill="#9fbdff"/><path d="M29.1 896.7c-.8-4.7-.7-9.8 2-13.8s8.3-6 12.3-3.5c1-10.6 3-22.8 12-28.5a27 27 0 0 1 12-3.6 25 25 0 0 1 15.5 2.6c8.2 5 10 15.9 15.6 23.8-.4-6.6 6.8-12 13.4-11S123.6 869 126 875c.9-12.2 11.8-22.4 23.9-24.3s24.7 3.8 33 12.8 12.6 21.2 14.2 33.4c.4 3.8.6 7.9-1.3 11.2-2.8 4.9-9 6.4-14.6 7.4" fill="#f96632"/><path d="M33.2 895.6v-1.1l-.2-1.6a22.6 22.6 0 0 1 .1-3.5v-.3l.3-.8c0-.5.3-1 .4-1.5s-.2.4.2-.3l.3-.7.5-.7c.4-.7-.3.3 0 0l.9-1c0-.1.6-.6.2-.3l.4-.2 1.2-.7c-.3.2-.6.2-.1 0l.8-.2a4.6 4.6 0 0 0 .6-.2c.5-.2-.7 0-.2 0 .3 0 1.3-.2 1.5 0-.1 0-.8-.2-.2 0l.6.2c.8.2-.3-.3 0 0a7.1 7.1 0 0 0 .7.4 4.3 4.3 0 0 0 4.4 0 4.5 4.5 0 0 0 2-3.7l.5-4 .1-1v-.3l.4-2.2a49.5 49.5 0 0 1 1.9-7.6l.7-2 .5-1a28.2 28.2 0 0 1 2.1-3.3c.7-.9-.4.4 0 0l.6-.7a17.8 17.8 0 0 1 1.4-1.5l.5-.4c.9-.8-.7.5.3-.2a22.2 22.2 0 0 1 2-1.2l1.1-.6c1.2-.6-.7.2.5-.2l2-.7 2.3-.5 1-.2.8-.1h.2c1.4-.2 3-.3 4.4-.3h2.3l1.3.1h.6l2.4.6.8.3.5.2a15 15 0 0 1 1.9 1l.9.5c.3.1.3.3 0 0l.5.4a27.3 27.3 0 0 1 2.5 2.6c.4.5-.6-.8 0 0l.6 1c.4.5.8 1 1.1 1.7 3.1 5.2 5 11 8.5 16a4.3 4.3 0 0 0 8-2.1 11.3 11.3 0 0 0 0-1.2v.4-.7l.4-.9c-.2.7-.2.3 0-.2l.6-.8c.2-.3.5-.7 0-.2l1.6-1.5-.2.2.5-.4.9-.5.9-.5c-.9.5 0 0 .2 0l1.2-.4.6-.1h1.7c1.1 0-.8-.2.3 0l1 .2 1 .3.7.3c-.4-.2-.5-.2-.2 0l2 1 .3.3.9.7a20.7 20.7 0 0 1 1.6 1.7c.2.1 1 1.2.4.4a29.9 29.9 0 0 1 2.3 3.8l.4.7c-.2-.5-.2-.5 0 0 .8 2 2.4 3.4 4.6 3a4.3 4.3 0 0 0 3.8-4.1c0-.3.2-1.6 0-.7l.2-1.3a24 24 0 0 1 .9-3l.2-.6.6-1.3a27.4 27.4 0 0 1 1.6-2.7l.8-1.1.4-.6 2-2.1 1-1 .7-.6a26.1 26.1 0 0 1 2.5-1.7q1.2-.8 2.5-1.4l.6-.3c.2 0 .8-.4.3-.1l.3-.2.9-.3a26.5 26.5 0 0 1 2.7-.8l1.6-.3.7-.1c.4-.1-.6 0 .2 0a33.7 33.7 0 0 1 6.6 0h.8c-.2 0-.8 0 0 0l1.5.3a34 34 0 0 1 3.5.9l3 1c.1 0 .7.3 0 0l.8.3 1.6.8a41.5 41.5 0 0 1 5.6 3.4l.6.5c-.6-.4 0 0 .2.2l1.3 1a41.2 41.2 0 0 1 4.6 4.8l.6.7 1.2 1.7a52.1 52.1 0 0 1 3.6 6l1.4 3 .4.7c-.1-.1-.3-.6 0 .1l.6 1.8a70.3 70.3 0 0 1 3.5 13.4l.1.9a3 3 0 0 1 0 .5l.3 1.8a30.6 30.6 0 0 1 0 4 12.1 12.1 0 0 1-.2 1.3l-.2.8-.2.6-.2.4-.5.8c-.4.6 0 0 0 0l-.6.7-.5.5c-.6.5.3-.2 0 0l-1.4.9a17.4 17.4 0 0 1-1.5.8c-.2 0-.8.2 0 0l-1 .4a47.1 47.1 0 0 1-6.6 1.6 4.3 4.3 0 0 0-3 5.3 4.4 4.4 0 0 0 5.3 3c4.4-.9 9.1-2 12.8-4.8a17 17 0 0 0 6.4-15.1 68 68 0 0 0-9.2-30.5 48.4 48.4 0 0 0-23.6-20.4 36.1 36.1 0 0 0-29.5.9 31.6 31.6 0 0 0-17.5 25.3l8.4-1.2c-3.3-8-10.1-15.3-19.3-15.7-8.4-.3-17 6.6-16.6 15.4l8-2.2c-3.2-5-5.1-10.5-8-15.6-3.4-6-8.3-10.7-15-12.4a34 34 0 0 0-11.3-.6 36.7 36.7 0 0 0-10.6 2.3 24.8 24.8 0 0 0-13.6 13.4 67.4 67.4 0 0 0-4.4 20.7l6.4-3.7c-5.3-3.3-12.6-1.5-16.7 3-4.7 5.3-5 12.6-4 19.2.4 2.2 3.3 3.6 5.3 3a4.4 4.4 0 0 0 3-5.3z" fill="#f96632"/><path d="M306.7 675.4v237.8a4.3 4.3 0 0 0 8.5 0V675.4a4.3 4.3 0 1 0-8.5 0z" fill="#6c77c1"/><g fill="#ff983b"><path d="M25 897.9h950V975H25z"/><path d="M975 970.7H63.6c-12.2 0-24.8-.9-37 0H25l4.3 4.3v-77.1l-4.3 4.3h911.4c12.2 0 24.8.9 37 0h1.6l-4.3-4.3V975c0 5.5 8.6 5.5 8.6 0v-77.1a4.3 4.3 0 0 0-4.3-4.3H63.6c-12.3 0-24.7-.2-37 0H25a4.3 4.3 0 0 0-4.3 4.3V975a4.3 4.3 0 0 0 4.3 4.3h911.4c12.3 0 24.7.2 37 0h1.6c5.5 0 5.5-8.6 0-8.6zM836.1 851H867a4.3 4.3 0 1 0 0-8.5h-30.9a4.3 4.3 0 1 0 0 8.6zm0 16.3H867a4.3 4.3 0 1 0 0-8.6h-30.9a4.3 4.3 0 1 0 0 8.6z"/></g><path d="M753.3 817h39a4.3 4.3 0 0 0 0-8.5h-39a4.3 4.3 0 0 0 0 8.6z"/><g fill="#f96632"><path d="M116.9 623.1c-13.4-7-29.8-3.7-43.8 2a143.6 143.6 0 0 0-45.2 29.3q12.6-1.5 25-4c5.7-1 12.5-3.5 13.3-9.3a7.6 7.6 0 0 0 10.7 1.6c1-.8 1.7-1.9 2.8-2.7 4.5-3.4 13-.5 15.5-5.6 1-2 .7-5 2.7-6.1 2.6-1.3 5.3 2 8 1.7 3.5-.4 5.6-6 8.7-4.6"/><path d="M119 619.4a52.1 52.1 0 0 0-39.9-1A136.4 136.4 0 0 0 43 636.4a153.5 153.5 0 0 0-18.1 14.8 4.3 4.3 0 0 0-.9 4.7 4.2 4.2 0 0 0 4 2.6c9-1 18-2.3 26.9-4.2 6.4-1.4 14.3-4.8 15.4-12.1l-7.8 1a12 12 0 0 0 15 4 11 11 0 0 0 3.2-2.3l1.3-1.4c.8-.8-.2 0 .2-.1a8.3 8.3 0 0 0 .8-.5c.6-.3-.2 0-.2 0a3.5 3.5 0 0 1 .5-.1 13.8 13.8 0 0 1 1.5-.4h.5c.4-.1 1.1-.5.1 0a6.4 6.4 0 0 1 1.5-.2c4.7-.5 9.9-1.2 12.1-6a18.4 18.4 0 0 0 1.1-3.6 4.8 4.8 0 0 1 .5-1.5c-.6.8-.2.4 0 .2a1.6 1.6 0 0 1-.8.7c.4-.2.4-.2 0 0s-1.3.2-.5.2c-.2 0-.9-.3-.2 0l.3.1c-.7-.2.4.2.4.2a18 18 0 0 0 3.8 1.5c3.3.7 6.1-.6 8.6-2.8l1-1 .5-.5c.1-.1.9-.7.3-.3h.1c.4-.3 1-.4-.1 0 .6-.3-.5 0-.5 0 .6 0-1.1-.4 0 0 2 .8 4.8-1 5.2-3 .6-2.5-.7-4.4-3-5.3-2.6-1-5.3.2-7.4 1.8l-1.8 1.7-1 1s.9-.6.2-.2l-.7.4c0-.2.9-.4.3-.2-.9.3.8 0 .1 0s1 .3.1 0l-.6-.2c-.7-.2 0 0 0 0l-.7-.3c-.7-.4-1.5-.8-2.3-1a7.3 7.3 0 0 0-8.6 2.6 10 10 0 0 0-1.3 3.3l-.3 1.3-.2.8-.1.5c.2-.5.2-.6 0-.3l-.3.5c-.2-.2.7-.6.2-.2-1 .7.7-.3-.4.2a3 3 0 0 0-.4.3c.2-.4.8-.3.2-.2l-1.4.4-.7.1c-.5.1-.4.3.2 0a5 5 0 0 1-1.3.2l-3.8.4a14.3 14.3 0 0 0-6 2.1 43 43 0 0 0-3.8 3.5c.1 0 .7-.4 0 0-.2 0-1 .3 0 0l-.6.2-.6.2h.5a2.7 2.7 0 0 1-1 0H72h.2c-.4 0-1.1-.4-1.5-.5.8.2.4.2.2 0l-.8-.4c1 .7 0 0 0 0l-.4-.4.1.1a4.3 4.3 0 0 0-4.2-2A4.2 4.2 0 0 0 62 640l-.3 1-.1.5.1-.3a10.1 10.1 0 0 0-.5.9c-.4.7.6-.6 0 0-.5.5-.9 1-1.4 1.3.9-.6 0 0-.1.1l-.9.5-1 .5-.5.3a6 6 0 0 0-.8.3l-1 .3a38.7 38.7 0 0 1-4 1c-8 1.6-16 2.8-23.7 3.7l3 7.3q3.6-3.4 7.4-6.6c1-1 2.2-1.8 3.3-2.7a6 6 0 0 1 .5-.4l1-.8 2-1.5a143.6 143.6 0 0 1 16.3-10.2q4.3-2.2 8.7-4.2a41.4 41.4 0 0 1 3.2-1.4l.3-.1 4.6-1.8a85.5 85.5 0 0 1 9-2.7l4.6-1 1.2-.1c1-.2.4 0 .2 0l2.9-.3a48.9 48.9 0 0 1 5-.1l2.5.1 1.2.1c-.9 0 .5.1.7.2a31.2 31.2 0 0 1 9.3 3 4.3 4.3 0 0 0 4.3-7.4z"/><path d="M116.5 628.3a70.7 70.7 0 0 0-5 53.6 3.5 3.5 0 0 1 2.8-1.9q3.3 18.3 7 36.4a58 58 0 0 0 7.5-33 180.4 180.4 0 0 0-9.6-56.6"/><path d="M112.8 626.1a75.2 75.2 0 0 0-5.5 56.9 4.3 4.3 0 0 0 7.8 1c.4-.7-.1 0-.3.2l.3-.2a1.2 1.2 0 0 1-.8.3l-4-3.2q3.1 18.3 7 36.4a4.3 4.3 0 0 0 3.5 3 4.4 4.4 0 0 0 4.2-2c6.6-10 8.1-22.2 8.1-34a185.4 185.4 0 0 0-4-38 180.6 180.6 0 0 0-5.8-20.9 4.4 4.4 0 0 0-5.2-3c-2.1.7-3.8 3-3 5.3a181.4 181.4 0 0 1 5 17.7c.7 3 1.3 6.2 1.8 9.3l1.3 8.4a178.8 178.8 0 0 1 1.3 18.4l-.1 8.4-.3 4-.2 1.9c0-.1-.2 1.3 0 .7v.2l-.2.9a52.3 52.3 0 0 1-2.2 8.7l-.8 2c.3-.6 0 .2-.1.4l-.5 1.1a34.9 34.9 0 0 1-2.4 4.2l7.8 1q-3.8-18.1-7-36.4a4.3 4.3 0 0 0-4.1-3.1 8.2 8.2 0 0 0-6.6 4l7.8 1a67.7 67.7 0 0 1-1.7-6.6l-.6-3.4-.1-.8v-.1l-.2-1.7a71.2 71.2 0 0 1 0-13.4l.1-1.5.2-1a75.5 75.5 0 0 1 4.3-16.4l.4-.8c-.2.4-.2.4 0-.1l.7-1.6 1.6-3a4.3 4.3 0 1 0-7.4-4.3z"/><path d="M118.6 623.4a95 95 0 0 1 46.4 18.9c4.6 3.5 8.9 7.5 13.2 11.5l12 11-18.4-2.3c-4.7-.7-10.3-2.1-11.4-6.7-.4-1.9-.5-4.7-2.4-4.8a5 5 0 0 0-2.4.8 5.7 5.7 0 0 1-7.6-4.3c-.2-1.5.2-3.4-1-4.4a5.5 5.5 0 0 0-2.5-1c-4.2-1-7-5-9.8-8.2a42 42 0 0 0-14.7-10.6"/><path d="m118.6 627.6.7.1h.5l1.9.4a94.6 94.6 0 0 1 18.6 5.1l6.4 2.8a95 95 0 0 1 13.4 8l5.9 4.6 6.3 5.7 14.8 13.7 3-7.3-11.6-1.6-5.3-.7s-1.7-.2-.7 0l-1-.2a39 39 0 0 1-3.9-1l-1-.3c1 .4 0 0 0 0l-1.4-.9c.9.6.1.1 0 0l-.5-.5c.4.5.4.5.1.2l-.4-.8s.3 1 .1.1l-.3-1.7a9.1 9.1 0 0 0-2-4.6 6.1 6.1 0 0 0-5.8-1.8 9.8 9.8 0 0 0-2.8 1.1c-1 .6.8-.4-.1 0q-.8.1.2 0a4 4 0 0 1-.6 0s.9.3 0 0c-.2-.1-.8-.4 0 0l-.7-.4c.8.5.1.1-.1 0-.7-.7.3.6 0-.2l-.2-.2c-.2-.5-.2-.4 0 .1a3.1 3.1 0 0 1-.1-.5c.2 1.1 0-.4 0-.7a8.2 8.2 0 0 0-1.8-5.7c-1.5-1.6-3.4-2-5.4-2.6-.2 0-.7-.3 0 0l-1-.5-.9-.6-.3-.2a31.8 31.8 0 0 1-3-3.3 49.4 49.4 0 0 0-17.6-13.5c-2-1-4.7-.7-5.8 1.5-1 1.9-.7 4.9 1.5 5.8a42.6 42.6 0 0 1 8.6 5c-.7-.5.4.4.4.4l1 .8a42 42 0 0 1 5.1 5.2c2 2.4 4.2 5 7 6.5a14 14 0 0 0 4.5 1.6c.8 0 0-.1-.3-.4s-.8-1-.5-1.2a9.6 9.6 0 0 0 0 2.6 9.9 9.9 0 0 0 6.7 8.5 9.5 9.5 0 0 0 5 .4 8.8 8.8 0 0 0 2.5-.9 4 4 0 0 0 1-.5c-.5.6-1.6.2-2.2-.1-.2-.1-1-1.3-.7-.6-.6-1-.2-.3 0 0l.3 1.8a10.5 10.5 0 0 0 1.6 4 14.8 14.8 0 0 0 8 5.4c3.6 1.2 7.5 1.4 11.3 2l13 1.6c1.6.3 3.3-1.2 3.9-2.6a4.3 4.3 0 0 0-.9-4.7c-8.9-8.2-17.5-17-27.3-24.2a98.3 98.3 0 0 0-29-14.7 100.7 100.7 0 0 0-18.2-3.8c-2.2-.3-4.4 2.1-4.3 4.2.1 2.6 1.9 4 4.3 4.3z"/><path d="M116.4 622.6c-.4-9.3 7.8-16.7 16.2-20.7 21.8-10.6 49.2-9.1 67.5-25-7.1 16.3-24.3 25.4-40.3 33.3-2.4 1.1-5.2 2.3-7.6 1.1-2-1-3.4-3.6-5.7-3.6l-1.3 6.4a2.7 2.7 0 0 1-.8 1.8c-.8.5-1.9.2-2.8-.2l-9.1-4c-3.2 5.9-10 8.5-16.2 10.7"/><path d="m120.6 622.6.1-2.2c0 .9 0 0 .1-.4l.3-1.2.3-1 .1-.3a20 20 0 0 1 1.2-2.2l.6-.8.2-.3c.5-.7 1-1.3 1.6-1.8l1.8-1.7.8-.8.4-.3c.6-.4-.4.3 0 0a48.2 48.2 0 0 1 8.3-4.8l1.3-.6-.2.1.5-.2a91.3 91.3 0 0 1 7-2.5c12.6-4 25.7-5.8 38.1-10.3a63.7 63.7 0 0 0 20-11.3l-6.7-5.2a41.8 41.8 0 0 1-3 5.7l-1.8 2.5c-.5.7-.1.1 0 0l-.5.6-1.2 1.4a55.4 55.4 0 0 1-4.5 4.5l-2.4 2-1.1 1c.6-.5 0-.1 0 0l-1 .6c-7 5.2-15 9.3-22.7 13.1l-.7.4-.6.3c-.4.1-.5.2-.3 0 .4 0-.4.2-.5.3l-1 .3c-.8.2-.3 0 0 0l-.6.1c-.3 0-.5-.1-.1 0a4.9 4.9 0 0 1-.9-.5c.7.5.3.2.1 0l-.7-.7a21.4 21.4 0 0 0-1.9-1.4 8.2 8.2 0 0 0-4.5-1.5 4.3 4.3 0 0 0-4 3.2l-1 4.9a9.3 9.3 0 0 0-.6 2c0-1 2.6-2 2.7-1.6.3 0 .3 0 0 0a4.7 4.7 0 0 1-.5-.2l-.2-.1-1.4-.6-2-.9-4.9-2c-2-1-4.6-.7-5.8 1.5l-.7 1c0 .2-.2.4-.3.5l.1-.1a21.2 21.2 0 0 1-1.6 1.6l-.8.7c.7-.6-.2.2-.3.2l-2 1.3-2.1 1.1-1 .5c-.9.4.6-.2-.4.1l-4.5 1.7c-2.1.7-3.7 3-3 5.3.7 2 3 3.7 5.2 3 7.2-2.5 14.8-5.6 18.8-12.6l-5.9 1.6 6.4 2.7c2.1.9 4.4 2.3 6.7 2.2a6.1 6.1 0 0 0 5.9-4.8l1.3-6.7-4.1 3.1c-1.5 0 .4.1-.4-.1l.2.1c.4.5-.8-.6 0 0l.5.5a16.6 16.6 0 0 0 3 2.4 11 11 0 0 0 9.4.2 131.3 131.3 0 0 0 13.2-6.6A87.3 87.3 0 0 0 195 592a47.2 47.2 0 0 0 8.8-13c.8-2 .7-4.1-1.2-5.5a4.3 4.3 0 0 0-5.6.3l-.8.8-.6.4-.2.2a7.4 7.4 0 0 0-.6.4l-1 .8q-2.1 1.4-4.3 2.6l-4.3 2.2-1 .4-.5.3c.7-.4.1-.1 0 0l-2.3.8a160.5 160.5 0 0 1-19.4 5.5c-6.6 1.6-13.2 3-19.6 5.1s-13 4.7-18.5 8.8c-6.6 4.9-12 11.8-11.8 20.4a4.3 4.3 0 0 0 8.5 0z"/><path d="M114.7 623c-3.2-15-1.5-31 2.5-45.9s15.1-51.9 21.5-66c-3 10.3-8.8 44-8 54.7.5 6.3 1.7 12.8.5 19-1.1 5.9-4.2 11.1-5.7 16.9-1.7 6.7-1.5 14.7-6.6 19.3"/><path d="M118.8 622a76.7 76.7 0 0 1-1-6.8q-.4-3.7-.5-7.4c0-2.5 0-5 .2-7.5 0-1.3.2-2.5.3-3.7l.2-1.7.1-1q0-.4 0 0v-.4a172.7 172.7 0 0 1 5.2-22.2 924.2 924.2 0 0 1 17.8-55l.8-2-.2.4.2-.5.5-1-7.9-3.2c-1.4 5.1-2.4 10.4-3.4 15.7q-2 10.9-3.4 21.8a109 109 0 0 0-1.3 17c.1 4.6 1 9.1 1 13.7a34.6 34.6 0 0 1-.1 3.8 18.9 18.9 0 0 1-.6 3.2 56 56 0 0 1-2.3 7 73.8 73.8 0 0 0-2.8 7.7 69.4 69.4 0 0 0-1.4 6.9 45.9 45.9 0 0 1-1.6 6.8l-.2.7c-.3.8.2-.3 0 .1l-.7 1.4-.4.6c-.1.2-.8 1-.2.3L116 618a4.3 4.3 0 0 0 0 6 4.4 4.4 0 0 0 6 0c6.9-6.4 6-16.6 8.8-24.8 1.7-4.7 4-9.2 4.8-14.2.9-5.7.2-11.2-.3-16.9a81.6 81.6 0 0 1 .6-17l.6-5.2c-.1 1 0 0 0-.4l.3-1.3c0-.9.2-1.8.4-2.7l1.7-10.7a187.5 187.5 0 0 1 4-18.6 4.3 4.3 0 0 0-2.5-5c-1.7-.7-4.4-.2-5.3 1.8-5.5 12.3-9.4 25.3-13.4 38.2l-6 20a191.8 191.8 0 0 0-5.2 21.5 97.5 97.5 0 0 0 .2 35.5 4.3 4.3 0 0 0 5.2 3 4.4 4.4 0 0 0 3-5.2z"/><path d="M114.8 615.3a96.8 96.8 0 0 0-80-45.9c5.3 3 8.8 8 12 13s6.6 10.3 11.5 13.7 12 4.4 16.7.8c-.6 3.2 1.9 6.4 4.9 7.7s6.4 1.3 9.7 1.3c-.4 3 1.9 5.7 4.6 7.2s5.7 1.8 8.7 2.6a35.8 35.8 0 0 1 16.5 9.7"/><path d="M118.5 613.2A99.7 99.7 0 0 0 92 584.4a101.1 101.1 0 0 0-35-16.3 97 97 0 0 0-22-3c-4.3 0-5.9 6-2.2 8a23 23 0 0 1 2.2 1.5c.4.3 0 0-.1 0l.6.5 1 1a32.5 32.5 0 0 1 2.8 3l.4.5c2.3 3 4.2 6.2 6.3 9.3C50.3 595.2 56 601.6 64 603c4.5.8 9.4.3 13.1-2.5l-6.3-4.8a11.2 11.2 0 0 0 1.1 7.1 13 13 0 0 0 4.5 4.8c3.8 2.5 8.7 2.6 13.2 2.5l-4.3-4.3c-.3 4 2 7.6 5.2 10 2.9 2.1 6.5 2.8 10 3.7a38.5 38.5 0 0 1 4.8 1.4l.5.2 1.1.5a38 38 0 0 1 4.3 2.5l.8.6.8.5.7.5 1 .8 1.8 1.9a4.3 4.3 0 0 0 6-6 40.7 40.7 0 0 0-16.7-10.4c-1.5-.5-3-.8-4.6-1.2a46 46 0 0 1-3.5-1c-.2 0-1-.3-.4 0a10.7 10.7 0 0 1-2-1.2c.5.3.1 0-.1-.2l-.7-.7c.6.7 0-.1-.1-.3s-.4-1-.2-.3c0-.2-.2-1.2-.2-.2a6.4 6.4 0 0 1 0-1 4.3 4.3 0 0 0-4.2-4.3 46.9 46.9 0 0 1-4.8-.1c-.2 0-1-.1-.4 0a14 14 0 0 1-2.1-.5l-.6-.2-.8-.5c-.3-.2-.6-.5-.2 0a8.2 8.2 0 0 1-.7-.7l-.1-.1-.6-1c-.4-.6 0 .3 0-.1 0-.2-.1-1 0 0 0-.3 0-1.4-.2-.4a4.4 4.4 0 0 0-1.5-4.5 4.2 4.2 0 0 0-4.8-.3 18 18 0 0 1-1.8 1.1c.6-.3 0 0-.4.1a13.7 13.7 0 0 1-1.4.4c-.8.2.6 0-.3 0h-2.7a20.9 20.9 0 0 1-2.2-.6l-.7-.3c.4.1-.2 0-.2 0l-.7-.4a18.7 18.7 0 0 1-2.1-1.3l-.5-.4c0 .1.4.4 0 0l-1.1-.9a34.9 34.9 0 0 1-3.5-3.8c-.4-.6.3.4 0-.1l-.5-.5-.7-1-1.5-2.3c-2-3-4-6.2-6.4-9.2a31.7 31.7 0 0 0-9.1-8.3l-2.2 8a90.1 90.1 0 0 1 9.5.7l1.1.1c-1-.1.2 0 .4 0l1.8.4q2.5.4 4.9 1c3 .6 5.9 1.4 8.7 2.4 1.5.4 3 1 4.3 1.5l2.1.8c.1 0 1.3.5.4.2l1.4.6a99.3 99.3 0 0 1 15.9 8.8L89 593s1 .8.3.2l.9.7 2 1.7q3.5 3 6.6 6.2a80 80 0 0 1 12.3 15.9 4.3 4.3 0 1 0 7.4-4.3z"/></g><path d="M315.7 732.3h179a4.3 4.3 0 1 0 0-8.5h-179a4.3 4.3 0 1 0 0 8.5z" fill="#6c77c1"/><path d="M109 606.8a7.2 7.2 0 0 0-1.5-.6 7 7 0 0 0-1.8-.2 7 7 0 0 0-3.2.9 6.5 6.5 0 0 0-2.3 2.3 5.9 5.9 0 0 0-.9 3.2 6.7 6.7 0 0 0 .3 1.6 7 7 0 0 0 .7 1.6 6.5 6.5 0 0 0 2.3 2.3 6 6 0 0 0 1.5.6 6 6 0 0 0 2.8 0 6 6 0 0 0 1.5-.6 5.6 5.6 0 0 0 1.3-1 6.3 6.3 0 0 0 1.7-2.9 5.3 5.3 0 0 0 .2-1.7 6 6 0 0 0-.8-2.7 3.3 3.3 0 0 0-1-1.2 3.9 3.9 0 0 0-3.2-.9 3.1 3.1 0 0 0-1.6.5l-.9.7a4.3 4.3 0 0 0-1 1.8l-.2 1.2a4.2 4.2 0 0 0 .6 2.1v.2l-.4-1a1.8 1.8 0 0 1 .1.4l-.1-1.2a1.4 1.4 0 0 1 0 .4l.1-1a2.8 2.8 0 0 1-.1.4l.4-1a2.7 2.7 0 0 1-.3.5l.7-.9a2.2 2.2 0 0 1-.4.4l.9-.7a3.3 3.3 0 0 1-.4.3l1-.5a1.8 1.8 0 0 1-.4.1l1.1-.1a1.6 1.6 0 0 1-.4 0l1.1.1a1.9 1.9 0 0 1-.4 0l1 .4a2.9 2.9 0 0 1-.4-.3l.9.7a2.4 2.4 0 0 1-.5-.4l.7.8a2 2 0 0 1-.3-.5l.4 1a2.4 2.4 0 0 1-.1-.5l.2 1.1a2 2 0 0 1 0-.5l-.2 1.1a1.6 1.6 0 0 1 .1-.4l-.4 1a1.7 1.7 0 0 1 .2-.4l-.6.9a2 2 0 0 1 .4-.4l-.9.6a3.6 3.6 0 0 1 .5-.3l-1 .5a2.6 2.6 0 0 1 .7-.2l-1.2.1a2.7 2.7 0 0 1 .7 0l-1.2-.1a3 3 0 0 1 .5.1l-1-.4h.2a3 3 0 0 0 1.6.6 4.4 4.4 0 0 0 4.2-2l.5-1a4.4 4.4 0 0 0 0-2.3l-.5-1a4.3 4.3 0 0 0-1.5-1.6zm-2.2 26.1a4.3 4.3 0 1 0-4.3-4.3 4.3 4.3 0 0 0 4.3 4.3zm17.3-20.9a8.1 8.1 0 0 0-5.5 2.3 8.7 8.7 0 0 0-1 1.3 3.7 3.7 0 0 0-.5.7 9.3 9.3 0 0 0-.6 1.7 10.6 10.6 0 0 0-.2 1.8 7.6 7.6 0 0 0 .6 3.1 6.7 6.7 0 0 0 .5 1.1 9.9 9.9 0 0 0 .9 1.1l.1.1a6.2 6.2 0 0 0 1 .8 5.2 5.2 0 0 0 5.4 0 5.5 5.5 0 0 0 1.3-1.1 14.4 14.4 0 0 0 1.2-1.6 12 12 0 0 0 1.1-2.6 12.5 12.5 0 0 0 .5-3 3.2 3.2 0 0 0-.4-1.7 3.2 3.2 0 0 0-.9-1.3 4.3 4.3 0 0 0-6 0l-.6.8a4.2 4.2 0 0 0-.6 2.2v.6-1.1a8 8 0 0 1-.4 1.8l.4-1a8 8 0 0 1-.9 1.6l.7-.9a3.3 3.3 0 0 1-.6.6l.9-.6a1.2 1.2 0 0 1-.3 0l1-.3h-.1l1.1-.1h-.3l1.2.1h-.2l1 .4-.2-.1.8.6a2.1 2.1 0 0 1-.3-.3l.7.8a3 3 0 0 1-.4-.6l.4 1a4.4 4.4 0 0 1-.2-1l.1 1.1a4 4 0 0 1 0-1l-.1 1.1a5 5 0 0 1 .2-.8l-.4 1a4 4 0 0 1 .4-.8l-.6.8a4.2 4.2 0 0 1 .6-.6l-.8.7a4.3 4.3 0 0 1 .7-.5l-1 .4a3.6 3.6 0 0 1 1-.2l-1.1.1h.5a4.4 4.4 0 0 0 3-1.2 4.3 4.3 0 0 0 0-6 4.4 4.4 0 0 0-3-1.3zm-5 31.1a4.3 4.3 0 1 0-4.2-4.2 4.3 4.3 0 0 0 4.3 4.3z" fill="#ff983b"/><path d="m197.3 834 47.2-47.4 13.3-13.5a4.3 4.3 0 0 0-6-6l-47.1 47.4-13.4 13.5a4.3 4.3 0 0 0 6 6zm38.7 6.4 26-26a4.3 4.3 0 1 0-6-6l-26 26a4.3 4.3 0 0 0 6 6zm34.6-38.5a4.3 4.3 0 1 0-4.2-4.3 4.3 4.3 0 0 0 4.2 4.3zm116.5-101 38.3-38.6a4.3 4.3 0 1 0-6-6L381 694.9a4.3 4.3 0 0 0 6 6zm32.9 17 48-48.4 13.5-13.6a4.3 4.3 0 0 0-6-6l-48 48.4-13.5 13.6a4.3 4.3 0 0 0 6 6zm19.3-68.2a4.3 4.3 0 1 0-4.3-4.3 4.3 4.3 0 0 0 4.3 4.3zM338.9 851l70.8-70.4 19.9-19.7a4.3 4.3 0 0 0-6-6l-71 70.4-19.8 19.7a4.3 4.3 0 0 0 6 6zm74.2-26.5 54.1-54.1 15.4-15.4a4.3 4.3 0 0 0-6-6l-54.1 54.1-15.4 15.4a4.3 4.3 0 0 0 6 6zm-18.5 57.8 42.1-42 12-12a4.3 4.3 0 0 0-6-6l-42.1 42-12 12a4.3 4.3 0 1 0 6 6z" fill="#cfe0ff"/><path d="m527.7 815 34.5-34.5a4.3 4.3 0 0 0-6-6L521.6 809a4.3 4.3 0 1 0 6 6zm13.1 31.2 16-16a4.3 4.3 0 0 0-6-6l-16 16a4.3 4.3 0 0 0 6 6zm77.7-20 23.7-24a4.3 4.3 0 0 0-6-6l-23.8 24a4.3 4.3 0 1 0 6 6zm9.4 24.3 13.2-13.3a4.3 4.3 0 0 0-6-6l-13.3 13.2a4.3 4.3 0 0 0 6 6.1zm65.5-44.8 32-32.1a4.3 4.3 0 0 0-6-6l-32 32.1a4.3 4.3 0 0 0 6 6zm3.9 42.6q14.9-15.9 30.8-30.7a4.3 4.3 0 0 0 0-6 4.4 4.4 0 0 0-6 0q-16 14.8-30.8 30.7a4.3 4.3 0 1 0 6 6zm76.4-64 7.3-7a4.3 4.3 0 0 0 0-6.1 4.3 4.3 0 0 0-3-1.3 4.5 4.5 0 0 0-3 1.3l-7.3 7a4.4 4.4 0 0 0-1.3 3 4.3 4.3 0 0 0 1.3 3 4.3 4.3 0 0 0 3 1.2 4.5 4.5 0 0 0 3-1.2zm.7 15a4.3 4.3 0 1 0-4.3-4.4 4.3 4.3 0 0 0 4.3 4.3zm-4.3 51.3a4.3 4.3 0 1 0-4.3-4.2 4.3 4.3 0 0 0 4.3 4.2z" fill="#9fbdff"/><path d="m88.6 767.5 417-216.5M90.7 771.2l11.1-5.8 30.4-15.8 44.9-23.3 54.7-28.4 60.1-31.2 60.5-31.4 56.4-29.3 47.6-24.7 34.3-17.8L507 555l.7-.4c4.9-2.5.5-10-4.3-7.4l-11.2 5.8-30.4 15.8-44.8 23.3-54.7 28.4-60.1 31.2-60.5 31.4-56.4 29.3-47.7 24.8-34.2 17.8c-5.4 2.8-10.9 5.5-16.2 8.4l-.7.3c-4.9 2.6-.6 10 4.3 7.4z"/><path d="M59.4 876.9v-1.2l-.1.5a8 8 0 0 0 .3-1.3c.3-1-.2.4 0 0l.3-.5.8-1.3c-.6 1-.2.3 0 0l.6-.5.5-.4c.7-.6-.4.2 0 0l1.1-.8c.3 0 .5-.2.7-.3-1 .5-.4.2 0 0l.8-.2c.2 0 1-.2.4 0s.4 0 .6 0c1 0-.1-.2-.1-.2a4.2 4.2 0 0 1 .8.2c.9.2-.8-.4 0 0l.7.5c.7.4-.6-.6 0 0l.5.5c.1.2.7.8.4.3l.1.3.5.8c.5.9-.3-.8 0 .1l.3 1a12.6 12.6 0 0 1 .3 1.8 4.2 4.2 0 0 0 2 2.5 4.3 4.3 0 0 0 3.3.4 4.3 4.3 0 0 0 2.5-2 5 5 0 0 0 .5-3.3 13.9 13.9 0 0 0-4.8-8.9 11.7 11.7 0 0 0-11-2c-6 1.8-10.8 7.4-10.6 14a4.3 4.3 0 1 0 8.5 0zm32.3 0v-.3a3.2 3.2 0 0 0-.4-1.6 3.2 3.2 0 0 0-.8-1.4 3.3 3.3 0 0 0-1.4-1 3.2 3.2 0 0 0-1.7-.3l-1 .2a4.2 4.2 0 0 0-2 1l-.7 1a4.2 4.2 0 0 0-.5 2.1v.3a3.1 3.1 0 0 0 .3 1.6 3.2 3.2 0 0 0 1 1.4 3.3 3.3 0 0 0 1.3.9 3.2 3.2 0 0 0 1.6.3l1.2-.1a4.4 4.4 0 0 0 1.9-1.1l.6-.9a4.3 4.3 0 0 0 .6-2.1zm29.4 1.8c.1-1.1-.1.6 0 0 0-.3 0-.6.2-1a16 16 0 0 1 .4-1.6l.4-1c-.2.5-.2.3 0 0a14.8 14.8 0 0 1 .9-1.6c.2-.3.4-.5 0 0l.6-.7.6-.6.3-.4.4-.2.9-.5.6-.3c-1 .4 0 0 .2 0a7.3 7.3 0 0 1 .8-.2c.2-.1 1-.4 0 0a6.6 6.6 0 0 1 1.7 0c.8 0-.5-.2 0 0 .2 0 .5 0 .8.2 0 0 1 .3.5 0l.4.3a15.4 15.4 0 0 1 1.4.9c1 .6-.6-.6.3.2l.6.5a27.5 27.5 0 0 1 2.5 2.7c1.4 1.8 4.6 1.6 6 0a4.4 4.4 0 0 0 0-6 21.2 21.2 0 0 0-7.1-6 14 14 0 0 0-10.5-.6c-7 2.4-10.8 9-11.5 16-.3 2.3 2 4.5 4.2 4.4a4.4 4.4 0 0 0 4.3-4.3zm29.4-4h.3a4.8 4.8 0 0 0 3-1.2 3.2 3.2 0 0 0 .9-1.3 3.2 3.2 0 0 0 .3-1.7l-.1-1.1a4.3 4.3 0 0 0-1.1-2l-.9-.6a4.2 4.2 0 0 0-2.1-.6h-.3a4.6 4.6 0 0 0-3 1.3 3.3 3.3 0 0 0-.9 1.4 3.3 3.3 0 0 0-.3 1.6l.1 1.1a4.2 4.2 0 0 0 1.1 2l.9.6a4.3 4.3 0 0 0 2.1.6zm13.6-5.2a4.3 4.3 0 1 0-4.3-4.3 4.3 4.3 0 0 0 4.3 4.3z" fill="#ff983b"/><g fill="#fff"><path d="M462 448H221.4s36.3-12.2 47.6-30.2 34-3.2 33 7.4c0 0 19.6-57.3 54.6-47.7s26.5 46.1 26.5 46.1 14.4-18.5 34-15.4 16 22.3 16 22.3 17.5-3.7 23.3 6.9z"/><path d="M462 443.7H221.4l1.2 8.4a146.7 146.7 0 0 0 30.5-14.4c7.1-4.4 14-9.7 18.8-16.7l1.5-2.2.2-.3.4-.5a19 19 0 0 1 1.3-1.3l1-1c.3-.3-.8.6 0 .1l.5-.3 1.2-.7.6-.3c1-.5-.7.2 0 0a20.4 20.4 0 0 1 2.4-.7 3.8 3.8 0 0 0 .7-.1h-.3H284.6h-.4c1 .2 2 .3 2.8.6.4 0 .8.2 1.2.4a3.7 3.7 0 0 0 .8.2c-.5 0-.8-.3-.1 0a23.7 23.7 0 0 1 2.5 1.4l1.2.8a2.3 2.3 0 0 0 .4.3c-1-.4-.3-.2 0 0a19.2 19.2 0 0 1 2 2l.8.8c.6.6-.6-.8-.1-.1l.4.5a20 20 0 0 1 1.1 2c.4.8-.3-.8-.1-.3l.2.7.3 1c0 .4-.2.6 0-.4a5.3 5.3 0 0 0 0 .5 8 8 0 0 1 0 1.1c-.2 2.1 1.8 4 3.7 4.2a4.3 4.3 0 0 0 4.7-3 71.7 71.7 0 0 1 1.9-4.8c.2-.7 0 0-.2.4a63.7 63.7 0 0 0 1.6-3.8c1-2 1.9-3.9 3-5.8a109.2 109.2 0 0 1 8-13 70.4 70.4 0 0 1 1.4-2l-.2.3a5.7 5.7 0 0 0 .7-1l2.6-3a56.6 56.6 0 0 1 6-5.8l.7-.6.3-.3c.5-.3-.7.6-.3.3l1.8-1.3a38.2 38.2 0 0 1 3.3-2l1.7-.9.9-.4c.8-.3-1 .4.1 0a32.8 32.8 0 0 1 3.8-1.2l2-.5.8-.1c.6-.1-1 0-.4 0h.6a28 28 0 0 1 4.1-.1l2 .2h.1l1.3.2a41 41 0 0 1 5.1 1.5l2.5 1a35.5 35.5 0 0 1 1.8.9 36.2 36.2 0 0 1 4.2 2.4l1 .7c.4.3-.3 0-.3-.2a4.4 4.4 0 0 0 .4.4c.7.4 1.3 1 1.8 1.5a33.3 33.3 0 0 1 2.9 3.1 2.7 2.7 0 0 1 .3.4l-.2-.3.6.8 1.1 1.8a34.7 34.7 0 0 1 1.8 3.4c.2.4.4 1.3 0 0l.4.9a41.5 41.5 0 0 1 2.2 8.7c.2 1-.1-1.1 0-.2l.1.9.2 1.6a49.3 49.3 0 0 1 0 5.8c0 1.5-.2 3-.3 4.4.2-2 0 0-.1.5l-.2 1v.3a4.4 4.4 0 0 0 2 4.8c1.5.9 4 .9 5.1-.6a41.7 41.7 0 0 1 5.7-5.9l1.4-1.1c.4-.4.7-.4 0 0a8 8 0 0 0 1-.7l3.6-2.4a42 42 0 0 1 4.1-2.1l.4-.2 1-.4a33.8 33.8 0 0 1 4.8-1.3l1.1-.2c.8-.1 0 0-.1 0h.8a28.9 28.9 0 0 1 5.3 0h.7c-.1 0-.8-.1 0 0l1.2.2a25.4 25.4 0 0 1 2.6.7l1 .3a2.3 2.3 0 0 1 .5.2c-.4-.3-.6-.2-.2 0l2 1 .8.5.3.2c.5.3-.6-.5-.2-.2l1.4 1.3.6.6.2.4c.5.5-.2-.3-.2-.4a13.8 13.8 0 0 0 1 1.5l.8 1.4c.3.7 0 .3-.1-.2a4 4 0 0 0 .3.9 19.3 19.3 0 0 1 .8 2.9l.1.8c.2.8 0-1.2 0-.2l.1 1.4v2.4l-.1 1.7s.2-1.4 0-.6a.9.9 0 0 1 0 .2 4.3 4.3 0 0 0 5.3 5.2l1.2-.2c.2 0 1-.1 0 0h.2l1.7-.1a37.2 37.2 0 0 1 4 0h2.3c1.2.2-.8 0 .4 0l1.3.3a20.2 20.2 0 0 1 2.2.7l.7.2.3.1.7.4.9.5.4.3c.8.5-.5-.5-.1 0 .1 0 2 1.6 1.8 1.7s-.6-.8 0 0l.3.5.7 1.4 2 3.6 2.3 4.2 1 2a4.3 4.3 0 0 0 6 1.5 4.4 4.4 0 0 0 1.5-5.8l-1-1.7-2.1-4a56 56 0 0 0-3.7-6.4c-4.8-6.6-13.1-8.5-21-8.2a40 40 0 0 0-6.3.8l5.3 5.2c1.5-7.8-.7-17-7-22.2s-14.9-6.5-22.8-5.4a40.8 40.8 0 0 0-18.6 8.4 47.3 47.3 0 0 0-8.7 8.2l7.2 4.1a51.2 51.2 0 0 0 .4-19 38.2 38.2 0 0 0-20.2-28.6 39.7 39.7 0 0 0-20.8-4.8 36 36 0 0 0-16.9 5.9 74.4 74.4 0 0 0-22.8 26.3 126.7 126.7 0 0 0-6 11.9 79.2 79.2 0 0 0-3 7.4v.3l8.3 1.1c.7-7.4-6-14-12-17.2a24 24 0 0 0-12-2.9 20.3 20.3 0 0 0-12.5 5.1 27.6 27.6 0 0 0-4.7 6l-.8 1-.3.4c-.6.8.6-.7 0 0l-2 2.3a50.8 50.8 0 0 1-4.2 4l-2.4 2-.5.4-1.5 1.1a126.4 126.4 0 0 1-21.3 11.9l-2.5 1-.7.3c-.8.4.1.1.2 0l-1.2.4-4 1.6c-1.3.5-2.3 1-3.6 1.3a4.3 4.3 0 0 0 1.2 8.4H462a4.3 4.3 0 1 0 0-8.5zM841.8 610h-192s17.5-10 28.6-22.3 28 7.3 28 7.3 22.4-47.2 51.6-44 25.4 36.7 25.4 36.7 10.6-15.9 22.3-13.8 11.7 24.7 12.7 21.1 14.9-2 19 6.5z"/><path d="M841.7 605.6h-192l2.2 8a141.3 141.3 0 0 0 23.7-17.3c2.5-2.2 4.8-4.6 7.2-7l-.3.3a3 3 0 0 1 .4-.3l.7-.5c.2-.2.6-.2.9-.4l-.5.2a2.3 2.3 0 0 0 .5-.2 13.7 13.7 0 0 1 1.6-.4c.9-.2-.8 0 0 0h.8a6.7 6.7 0 0 0 1.6 0 3.5 3.5 0 1 0-.5 0h.4l.9.3 1.5.5c.3 0 .6.2.8.3.7.2-.8-.4 0 0a35.6 35.6 0 0 1 6 3.5l.2.2c.4.4-.7-.5-.3-.2l.7.6 1.2 1 2 1.9 1.9 1.9c1.7 2 5.6 1.5 6.7-.9a112.8 112.8 0 0 1 7.4-12.8l3.9-5.8 1-1.4.5-.7c.6-.8-.5.6.2-.2l2.4-3a81 81 0 0 1 11-10.9l-.3.3a2.1 2.1 0 0 0 .5-.3l.6-.5a44.1 44.1 0 0 1 5-3.2l1.6-.8.8-.4.5-.2.5-.2.8-.3 1.8-.6a29.6 29.6 0 0 1 3.5-.8 4.5 4.5 0 0 0 .5 0h-.4l.8-.2h2a19.6 19.6 0 0 1 3.8.2 7 7 0 0 0 .3 0l1 .2a31.4 31.4 0 0 1 5 1.5l.5.1c.5.2-1-.4-.2 0a30.3 30.3 0 0 1 3.2 1.7l1.4 1c.4.4-.7-.6 0 0l.7.6a24.2 24.2 0 0 1 2.4 2.4l.5.6c.6.7-.5-.7 0 0l1 1.3a30.2 30.2 0 0 1 1.6 2.7l.6 1.3c.3.7 0 .4 0-.1l.3.8 1 2.8a43.2 43.2 0 0 1 1.2 5.5v.7-.4l.2 1.3.1 2.3v5.7a2.6 2.6 0 0 1 0 .3 4.3 4.3 0 0 0 3 4.1 4.5 4.5 0 0 0 5-2l.9-1.3c.5-.7-.7 1-.1.1l.5-.6 1.5-1.8a41.8 41.8 0 0 1 3.9-3.8l1-.9c.4-.3-.8.6 0 0l.5-.3a26.5 26.5 0 0 1 2.7-1.7l1.3-.7-.2.1a2.8 2.8 0 0 1 .8-.3l1.4-.4.5-.1.6-.1h-.3H804.8c0-.1-1-.1 0 0l.5.1a5.5 5.5 0 0 1 .5.2c1 .3-.1 0 0 0a17.4 17.4 0 0 1 1.8 1l-.4-.2c.2 0 .3.2.4.3l.9.9a3.8 3.8 0 0 1 .4.5l-.3-.3.7 1a20.8 20.8 0 0 1 1.2 2.1c0 .2.5 1.3.3.6l.2.7a36 36 0 0 1 .8 2.3c.4 1.3.8 2.7 1 4.1.5 2 .6 4.3 1.6 6a4.4 4.4 0 0 0 7.6.1 8 8 0 0 0 .5-1.2l-.2.6-.4.5c.1-.1.5-.4-.1 0s-.3.3-.1.2c.5-.3-1.1.3-.5.2l.8-.2c1-.3-1.1 0 0 0a24 24 0 0 1 2.4 0c.5 0 0 .3-.4 0a2 2 0 0 0 .6 0l1 .3 1.4.4a9.4 9.4 0 0 0 1.5.5c-.2.1-.9-.4-.1 0l.8.4 1.4.8.5.4c.8.6-.7-.6 0 0l1.3 1.2.4.4.2.3.7 1.2 2.2 4.3 2.2 4.4a4.3 4.3 0 0 0 5.8 1.5 4.4 4.4 0 0 0 1.6-5.8l-1.8-3.6a47.6 47.6 0 0 0-3.5-6.6 19.6 19.6 0 0 0-5.5-5.1 22.6 22.6 0 0 0-12-3.6 11.1 11.1 0 0 0-5.4 1.3 6.5 6.5 0 0 0-2.3 2.2 10.7 10.7 0 0 0-.6 1.5v.1a3.9 3.9 0 0 1 1-1.7c1.8-1.8 6.6-.8 6.9 1.7l-.1-.3-.3-1.2-.7-3.3a44.7 44.7 0 0 0-3.2-9.8 18 18 0 0 0-7.3-8.2 16.4 16.4 0 0 0-13.5-.5c-7.1 2.7-13.1 8.6-17.3 14.8l8 2.2a47.3 47.3 0 0 0-1.2-15.2 31.9 31.9 0 0 0-17-22.7 33.9 33.9 0 0 0-17.9-3 38.6 38.6 0 0 0-15.9 5.9 83.9 83.9 0 0 0-23.1 23.6 103 103 0 0 0-9.7 16.2l-.2.3 6.7-.8a42.1 42.1 0 0 0-5.5-5.3c-4-3.2-8.7-6.2-13.9-7a16.3 16.3 0 0 0-9 1c-3.2 1.3-5.3 3.7-7.7 6.1a102.3 102.3 0 0 1-8.2 7.4l-2 1.7c-.5.3 0-.1 0-.1l-.4.3-1.2.9-4 2.8c-3.2 2.3-6.5 4.5-10 6.5-3.6 2.1-2 8 2.2 8h192a4.3 4.3 0 0 0 0-8.6zm49.9-180h-87.5s8-4.5 13.1-10 12.8 3.2 12.8 3.2 10.2-21.5 23.5-20 11.6 16.7 11.6 16.7 4.8-7.2 10.1-6.2 5.3 11.2 5.8 9.6 6.8-1 8.7 3z"/><path d="M891.6 421.4h-87.5l2.2 8a58.2 58.2 0 0 0 10.2-7.3l2.3-2.1a14.9 14.9 0 0 0 2-2 4 4 0 0 0-.4.3 4.3 4.3 0 0 1 .5-.3c.6-.4-1 .2.2 0 .7-.2-1.2 0 0 0s-.6-.3.1 0l1 .3c1.1.3-.5-.3.1 0l1.7 1 .7.4c.6.5-.8-.6 0 0 .4.4.8.8 1.2 1s.7.8 1 1.2c1.8 2 5.6 1.5 6.8-.9a52 52 0 0 1 3.2-5.7 63 63 0 0 1 1.7-2.5l1-1.2c.2-.4-.4.3-.3.3a1.8 1.8 0 0 0 .2-.3l.6-.7a38.8 38.8 0 0 1 5-5c.5-.5-.7.5 0 0l.6-.5 1.6-1 1.4-.7c.6-.3-.8.3-.1 0 .3 0 .5-.2.8-.3a14.4 14.4 0 0 1 1.6-.4h.4-.5a3.4 3.4 0 0 0 .9 0h1.5-.3.6l1 .3.8.2c.3 0 1 .4.4.2l.3.2c.1.2.6.3.9.5l.6.4a18.5 18.5 0 0 0-.1 0l1 1c.5.5 0 .2 0-.2a15 15 0 0 1 1.2 1.9 3.2 3.2 0 0 0 .2.6 31.4 31.4 0 0 1 .4 1.1c0 .5.2.9.3 1.3v.7c0 .2.2 1.1.1.3v1.7a17 17 0 0 1 0 2.3 4.3 4.3 0 0 0 3.1 4 4.5 4.5 0 0 0 4.8-2l.4-.5c.1-.2-.7 1-.1.3l.8-1a19.9 19.9 0 0 1 1.6-1.6 2.4 2.4 0 0 1 .4-.3c-.4 0-.6.4 0 0l1.2-.8c.4-.3.1-.4-.1 0a2.7 2.7 0 0 1 .5-.2l.6-.1c.8-.3-.3 0-.3 0a5.7 5.7 0 0 1 .8 0c.5-.2-1-.2-.2 0h.4c0 .3-1-.6-.2 0 .5.5-.7-.7 0 0 0 .2.2.3.3.4.6.5-.4-.7-.2-.2l.5.8.2.4c.5.8 0-.1 0-.1.3 0 .5 1.6.6 1.9l.4 1.7a7.3 7.3 0 0 0 1.2 3.3 4.3 4.3 0 0 0 5.6 1.1 4.4 4.4 0 0 0 1.8-2 4.7 4.7 0 0 0 .2-.7c0 .7-1.2 1.9-1.5 2l-.6.3a1.7 1.7 0 0 0 .4 0c-.9.5-1 0-.6 0a3 3 0 0 0 .5 0c1 0-1-.2.2 0l1.3.4s-1-.5-.3 0c.3 0 .5.2.8.3.6.3-.3-.1-.2-.2s.5.6.6.6c.6.6-.2-.2-.1-.2l.4.7 1 1.9 1 2a4.3 4.3 0 0 0 5.8 1.5 4.4 4.4 0 0 0 1.5-5.8c-1.5-3.1-2.9-6.2-6-8a12.8 12.8 0 0 0-6.5-1.8 7.7 7.7 0 0 0-3.6.9 4.8 4.8 0 0 0-1.5 1.4 5.5 5.5 0 0 0-.8 1.5 4.7 4.7 0 0 1 1.8-2.2l3.3-.5 1.9 1.1a4 4 0 0 1 1 1.8.7.7 0 0 1 0-.2l-.1-.4-.2-1.1a24.6 24.6 0 0 0-.8-3c-1.2-3.4-3.2-6.5-6.7-7.7-6.3-2.2-12.5 3.1-15.7 8l8 2.1c.8-7.3-2.5-16-9.5-19.2a18.3 18.3 0 0 0-17.4 1 40 40 0 0 0-11.5 11.6 53.6 53.6 0 0 0-4.7 7.8l6.8-.9c-2.5-2.8-6.1-5.5-9.9-6.1s-6.8.6-9.5 3.4a44.8 44.8 0 0 1-3.7 3.4l-.9.7a2.2 2.2 0 0 1-.3.3l-2 1.4c-1.5 1.3-3 2.3-4.7 3.3-3.7 2.1-2 8 2.2 8h87.4a4.3 4.3 0 0 0 0-8.5zm-623.3-199h-87.5s8-4.6 13-10.2 12.8 3.3 12.8 3.3 10.2-21.5 23.5-20 11.6 16.7 11.6 16.7 4.8-7.2 10.1-6.2 5.3 11.2 5.8 9.6 6.8-1 8.7 3z"/><path d="M268.3 218h-87.5l2.2 8a60.5 60.5 0 0 0 12.5-9.3 15 15 0 0 0 2-2l-.4.3.5-.3c.6-.4-1 .2.2 0 .7-.2-1.2 0 0 0s-.6-.3 0 0c.4 0 .7.1 1 .3 1.2.3-.4-.4.2 0a18.7 18.7 0 0 1 1.7.9l.7.5c.6.4-.8-.7 0 0l1.1 1 1.1 1.1c1.7 2 5.6 1.6 6.7-.8a51.1 51.1 0 0 1 3.2-5.7l1.8-2.5.9-1.3-.3.4a1.8 1.8 0 0 0 .2-.3l.6-.7a38.7 38.7 0 0 1 5-5c.6-.6-.6.4 0 0l.7-.5 1.5-1 1.4-.7c.7-.4-.8.3 0 0l.8-.3a12.5 12.5 0 0 1 1.6-.4h.4c.4-.2-.5 0-.5 0a3.9 3.9 0 0 0 .9 0h1.5-.3.6l1 .3.8.2c.2 0 1 .4.4.1l.3.2a9.5 9.5 0 0 1 .9.5l.6.4-.4-.3a3.5 3.5 0 0 0 .3.3l1 1c.5.6 0 .2 0-.1 0 .2.3.4.4.6l.7 1.2a2.8 2.8 0 0 0 .3.6c-.3-.3-.4-.9-.2-.2l.5 1.3.3 1.4a15 15 0 0 1 .2.9c-.2-.9 0 .4 0 .7v1a17 17 0 0 1 0 2.3 4.3 4.3 0 0 0 3.1 4 4.5 4.5 0 0 0 4.9-2l.4-.4-.2.2.8-1a17 17 0 0 1 1.6-1.5l.4-.4c-.4 0-.6.4 0 0l1.2-.8c.4-.3.2-.3 0 0a2 2 0 0 1 .5-.2l.5-.1c.9-.3-.2 0-.2 0a5.7 5.7 0 0 1 .7 0c.5-.2-1-.2-.2 0l.4.1c0 .2-1-.7-.2 0 .5.3-.7-.8 0 0l.3.3c.6.5-.4-.7-.2-.3l.6.9.2.4c.4.8 0-.2 0-.2.2.1.5 1.7.6 2l.4 1.7a7.3 7.3 0 0 0 1.2 3.3 4.3 4.3 0 0 0 7.3-1l.3-.6c0 .6-1.3 1.8-1.6 2l-.5.2a2.9 2.9 0 0 0 .3 0c-.9.5-1 0-.5 0a3 3 0 0 0 .4 0c1.1 0-.9-.1.3.1l1.2.4s-.9-.5-.2 0l.7.3c.6.3-.3-.1-.2-.2s.6.6.6.6c.7.6-.2-.2 0-.2s.3.7.4.7l.9 1.9 1 2a4.3 4.3 0 0 0 5.8 1.5 4.4 4.4 0 0 0 1.6-5.6c-1.6-3-2.9-6.1-6-8a12.8 12.8 0 0 0-6.5-1.8 7.7 7.7 0 0 0-3.6 1 4.8 4.8 0 0 0-1.5 1.3 5.5 5.5 0 0 0-.8 1.6 4.4 4.4 0 0 1 1.8-2.3l3.3-.4 1.9 1a4 4 0 0 1 1 1.8.7.7 0 0 1 0-.1l-.1-.4-.2-1.2a24 24 0 0 0-.8-3c-1.2-3.4-3.2-6.5-6.7-7.7-6.3-2.1-12.5 3.2-15.7 8l8 2.2c.8-7.4-2.5-16.1-9.5-19.3a18.3 18.3 0 0 0-17.4 1.1 40 40 0 0 0-11.5 11.5 54.1 54.1 0 0 0-4.7 7.8l6.7-.8c-2.4-2.8-6-5.6-9.8-6.2s-6.9.7-9.5 3.4a43.2 43.2 0 0 1-3.7 3.4l-1 .8-.2.2-2 1.4c-1.6 1.1-3.1 2.2-4.8 3.1-3.7 2.1-2 8 2.2 8h87.4a4.3 4.3 0 0 0 0-8.5zm470.5 96.3H572.3s27.6-8 37.7-23.8 29.7-5.9 28.6 4.2c0 0 6.4-32.9 35.5-31.8s32.9 36.6 32.9 36.6 15.9-12.7 22.8-4.8 9 19.6 9 19.6z"/><path d="M738.8 310H572.3l1.2 8.5c2.7-.8 5.3-1.8 7.9-2.9a98 98 0 0 0 17.2-8.6 62 62 0 0 0 8.8-6.8 50 50 0 0 0 6.8-8.3l.4-.6c.3-.5-.5.5 0 0l.9-1a21 21 0 0 1 2-1.8l.3-.2 1-.6 1-.5-.2.1a3.8 3.8 0 0 0 .6-.2 14.5 14.5 0 0 1 2-.5c1-.2-.6 0 0 0l1.4-.1a17.2 17.2 0 0 1 1.9 0c1 .2-1-.1.1 0l1.1.3a21.8 21.8 0 0 1 2.1.7c.7.2-.3-.2-.3-.2a3 3 0 0 1 .6.3l1 .6 1 .5.5.4.4.4.8.8.7.7c.3.2-.6-.8-.3-.3l.3.4.5.9.2.3c.3.7-.2-.2-.2-.3a7.2 7.2 0 0 0 .6 1.8l-.1-.6a3 3 0 0 0 0 .5 8.3 8.3 0 0 1 0 1c-.2 2.2 1.7 4 3.7 4.2a4.2 4.2 0 0 0 4.7-3 30.4 30.4 0 0 1 .8-3.3l1.2-3.5.4-1 .2-.5c.3-.8-.4 1 0 .2l1-2.1a48.2 48.2 0 0 1 2.5-4.7c.5-.8 1-1.6 1.7-2.4l.4-.6c.4-.6-.6.8-.1.2l1-1.3a34.7 34.7 0 0 1 4.3-4.2l.3-.2-.3.2.6-.4 1.3-1a29.2 29.2 0 0 1 3-1.6l.6-.3.4-.2.4-.2 1-.3a32 32 0 0 1 3.4-1l1.7-.3a1.4 1.4 0 0 1 .4 0h-.3l1-.1a35.4 35.4 0 0 1 4.1-.1h2l1 .2c1 0-.6-.1.2 0l3.6.7 1.6.5.7.3.4.2c.4 0 .6.4-.2-.1.9.6 2 .9 3 1.4s1.8 1.2 2.7 1.8c.6.5-.3-.2-.1 0l.6.5 1.2 1 2.2 2.2 1 1 .4.6-.3-.4a2.5 2.5 0 0 0 .3.5 41.3 41.3 0 0 1 3.1 4.9 46.4 46.4 0 0 1 1.8 3.7c.1.2.5 1 .2.3v.2a59.2 59.2 0 0 1 2.8 8.8 58.2 58.2 0 0 1 .8 4c.2 1.2-.2-1 0-.3a1.8 1.8 0 0 0 0 .2 4.3 4.3 0 0 0 7.3 3l-.5.4.8-.6 3-2a43.6 43.6 0 0 1 4-2.2l1-.5c.9-.4-1 .4 0 0l.5-.2a23.6 23.6 0 0 1 2.4-.7l1.1-.3h.7-.4 1.6c.7 0 .5.2-.2-.1a8.3 8.3 0 0 0 1.1.2l.5.2c.6.1-.4-.1-.4-.2a6.8 6.8 0 0 0 1 .6c.6.3-.3-.2-.3-.3l.5.5a14.4 14.4 0 0 1 1.1 1.3c-.1-.2-.4-.6 0 0l.6.8a36.1 36.1 0 0 1 2 3.2l1.4 2.9c.2.2.7 1.6.4.7l.6 1.6a45 45 0 0 1 2.2 7.6 4.3 4.3 0 0 0 5.3 3 4.4 4.4 0 0 0 3-5.3 51 51 0 0 0-10.1-21c-6-7-16.1-3.7-22.9.2a48.8 48.8 0 0 0-6.2 4.3l7.3 3a55.8 55.8 0 0 0-3-13 45 45 0 0 0-15.3-21.7 35.8 35.8 0 0 0-31.6-4.5c-9.1 3-16.3 9.9-21 18.1a59 59 0 0 0-4.4 9.9 33.4 33.4 0 0 0-1.5 5 2.2 2.2 0 0 0 0 .3l8.4 1c.6-6.2-4.3-11.9-9.6-14.4a20 20 0 0 0-20.2 1 22.4 22.4 0 0 0-4.7 4.2 36 36 0 0 0-2 3c-.3.2-.5.6-.7 1l-.4.5a44.8 44.8 0 0 1-7.5 7.3l-.4.3-1 .7-2.3 1.6q-2.2 1.4-4.5 2.6-4.2 2.4-8.6 4.3l-.5.2c-.9.3 1-.4 0 0l-1 .3a46.3 46.3 0 0 1-5.2 2l-3 1c-4.7 1.3-3.8 8.4 1 8.4h166.5a4.3 4.3 0 1 0 0-8.5z"/></g><path d="M343.3 341.6h131.5a4.3 4.3 0 0 0 0-8.5H343.3a4.3 4.3 0 1 0 0 8.5zm175 8.5h233.3a4.3 4.3 0 0 0 0-8.5H518.3a4.3 4.3 0 1 0 0 8.5zm-73.2 35h113.4a4.3 4.3 0 1 0 0-8.5H445.1a4.3 4.3 0 0 0 0 8.5zM518.3 259H655a4.3 4.3 0 1 0 0-8.5H518.3a4.3 4.3 0 1 0 0 8.5z" fill="#ffd3b3"/><path d="m92.4 539.4.5-6 .1-1.2v-.3c0 .5 0-.3.1-.4l.5-3a94.3 94.3 0 0 1 2.7-11.2l1.8-5.4 1-2.6.3-.7s-.2.5 0 0l.7-1.5a96.6 96.6 0 0 1 5.4-10.3q1.6-2.7 3.4-5.3l2-2.7.2-.3.3-.4 1.2-1.5c1.4-1.7 1.8-4.3 0-6-1.5-1.4-4.5-1.9-6 0a100 100 0 0 0-21 44.4 103.2 103.2 0 0 0-1.7 14.3 4.3 4.3 0 0 0 8.5 0zm-26.1-35c0-.5 0-.5 0 0v-.6a48.4 48.4 0 0 1 .8-3.8 48.3 48.3 0 0 1 1.5-4.8l.4-1.2.2-.6a14.3 14.3 0 0 1 1-2.2 46.5 46.5 0 0 1 2.6-4.5 4.3 4.3 0 0 0-1.5-5.9 4.4 4.4 0 0 0-5.8 1.5 52.6 52.6 0 0 0-7.8 22c-.3 2.3 2.2 4.4 4.3 4.3 2.5 0 4-1.9 4.2-4.3zM546.7 688a111.8 111.8 0 0 0-.8-18.3 4.7 4.7 0 0 0-1.3-3 4.3 4.3 0 0 0-3-1.2c-2 0-4.6 1.9-4.3 4.2a111.8 111.8 0 0 1 .8 18.3 4.3 4.3 0 0 0 4.3 4.3 4.4 4.4 0 0 0 4.3-4.3zm33.7-21.8a172 172 0 0 1-10.5 23.7 4.3 4.3 0 1 0 7.3 4.3 190.8 190.8 0 0 0 11.4-25.8 4.3 4.3 0 0 0-3-5.2 4.4 4.4 0 0 0-5.3 3zm27 42.2 8-7.9a4.3 4.3 0 0 0 0-6 4.3 4.3 0 0 0-3-1.2 4.5 4.5 0 0 0-3 1.3l-8 7.8a4.4 4.4 0 0 0-1.3 3 4.3 4.3 0 0 0 4.3 4.3 4.5 4.5 0 0 0 3-1.2zm35.2 10.1a4.3 4.3 0 1 0-4.3-4.3 4.3 4.3 0 0 0 4.3 4.3z" fill="#9fbdff"/></svg>