<svg width="100" height="100" viewBox="0 0 100 100" fill="none" xmlns="http://www.w3.org/2000/svg">
<rect width="100" height="100" rx="14" fill="white"/>
<path fill-rule="evenodd" clip-rule="evenodd" d="M86 50C86 51.1023 85.9505 52.1931 85.8535 53.2701C85.764 54.2643 84.9125 55 83.9142 55H16.0857C15.0875 55 14.236 54.2643 14.1465 53.2701C14.0495 52.1931 14 51.1023 14 50C14 48.8977 14.0495 47.8069 14.1465 46.7299C14.236 45.7357 15.0875 45 16.0858 45H83.9143C84.9125 45 85.764 45.7357 85.8535 46.7299C85.9505 47.8069 86 48.8977 86 50ZM21.7813 71C21.1377 71 20.5304 70.6924 20.1696 70.1596C18.7793 68.1062 17.5953 65.9018 16.6476 63.5759C16.1362 62.3207 17.0975 61 18.4529 61H81.5471C82.9025 61 83.8638 62.3207 83.3524 63.5759C82.4047 65.9018 81.2207 68.1062 79.8304 70.1596C79.4696 70.6924 78.8623 71 78.2187 71H21.7813ZM31.4759 77C29.6334 77 28.8494 79.1929 30.3938 80.1977C36.0349 83.8678 42.7684 86 50 86C57.2316 86 63.9651 83.8678 69.6062 80.1977C71.1506 79.1929 70.3666 77 68.5241 77H31.4759ZM83.3524 36.4241C83.8638 37.6793 82.9025 39 81.5471 39H18.4529C17.0975 39 16.1362 37.6793 16.6476 36.4241C17.5953 34.0982 18.7793 31.8938 20.1696 29.8404C20.5304 29.3076 21.1377 29 21.7813 29H78.2187C78.8623 29 79.4696 29.3076 79.8304 29.8404C81.2207 31.8938 82.4047 34.0982 83.3524 36.4241ZM50 14C57.2316 14 63.9651 16.1322 69.6062 19.8023C71.1506 20.8071 70.3666 23 68.5241 23H31.4759C29.6334 23 28.8494 20.8071 30.3938 19.8023C36.0349 16.1322 42.7684 14 50 14Z" fill="black"/>
</svg>
